<svg width="87" height="21" viewBox="0 0 87 21" fill="none" xmlns="http://www.w3.org/2000/svg">
<path d="M6.25098 17.9141V20.2451H4.68262V17.9785C3.22884 17.9714 1.87533 17.6419 0.62207 16.9902V14.0146C1.03743 14.3512 1.6569 14.6628 2.48047 14.9492C3.30404 15.2357 4.03809 15.4004 4.68262 15.4434V11.5332C3.00684 10.9102 1.861 10.237 1.24512 9.51367C0.636393 8.7832 0.332031 7.89518 0.332031 6.84961C0.332031 5.72526 0.729492 4.76921 1.52441 3.98145C2.31934 3.18652 3.37207 2.72461 4.68262 2.5957V0.597656H6.25098V2.55273C7.76204 2.62435 8.88997 2.86784 9.63477 3.2832V6.18359C8.63216 5.57487 7.50423 5.20247 6.25098 5.06641V9.1377C7.81934 9.70345 8.94368 10.3516 9.62402 11.082C10.3044 11.8053 10.6445 12.6826 10.6445 13.7139C10.6445 14.9027 10.265 15.8623 9.50586 16.5928C8.74674 17.3161 7.66178 17.7565 6.25098 17.9141ZM4.68262 8.51465V5.10938C3.68717 5.28841 3.18945 5.80762 3.18945 6.66699C3.18945 7.40462 3.68717 8.02051 4.68262 8.51465ZM6.25098 12.1455V15.4004C7.27507 15.2428 7.78711 14.7308 7.78711 13.8643C7.78711 13.1624 7.27507 12.5895 6.25098 12.1455ZM22.8047 15.1211V15.1855H29.0566V18H18.916V15.3574L23.3311 11.1357C24.2191 10.2835 24.8421 9.57096 25.2002 8.99805C25.5654 8.41797 25.748 7.80924 25.748 7.17188C25.748 5.75391 24.9854 5.04492 23.46 5.04492C22.1351 5.04492 20.8675 5.57129 19.6572 6.62402V3.6377C20.9964 2.77116 22.5075 2.33789 24.1904 2.33789C25.766 2.33789 26.9941 2.73535 27.875 3.53027C28.763 4.31803 29.207 5.38509 29.207 6.73145C29.207 8.52897 28.1292 10.3874 25.9736 12.3066L22.8047 15.1211ZM32.1611 17.6025V14.7021C33.2139 15.3467 34.3346 15.6689 35.5234 15.6689C36.4186 15.6689 37.1169 15.4577 37.6182 15.0352C38.1266 14.6055 38.3809 14.0254 38.3809 13.2949C38.3809 11.7695 37.3031 11.0068 35.1475 11.0068C34.4456 11.0068 33.597 11.0713 32.6016 11.2002V2.5957H41.1309V5.36719H35.502V8.4502C35.9531 8.40723 36.3792 8.38574 36.7803 8.38574C38.363 8.38574 39.6019 8.80111 40.4971 9.63184C41.3923 10.4626 41.8398 11.5798 41.8398 12.9834C41.8398 14.5374 41.3063 15.8086 40.2393 16.7969C39.1722 17.778 37.7256 18.2686 35.8994 18.2686C34.417 18.2686 33.1709 18.0465 32.1611 17.6025ZM49.3057 18.2686C45.639 18.2686 43.8057 15.694 43.8057 10.5449C43.8057 7.8737 44.2998 5.83984 45.2881 4.44336C46.2835 3.03971 47.723 2.33789 49.6064 2.33789C53.1872 2.33789 54.9775 4.9554 54.9775 10.1904C54.9775 12.7972 54.487 14.7952 53.5059 16.1846C52.5319 17.5739 51.1318 18.2686 49.3057 18.2686ZM49.4561 4.92676C47.988 4.92676 47.2539 6.77083 47.2539 10.459C47.2539 13.9323 47.9736 15.6689 49.4131 15.6689C50.8167 15.6689 51.5186 13.8786 51.5186 10.2979C51.5186 6.71712 50.8311 4.92676 49.4561 4.92676ZM58.6514 18.2686C58.0928 18.2686 57.6273 18.0967 57.2549 17.7529C56.8825 17.4092 56.6963 16.9867 56.6963 16.4854C56.6963 15.9697 56.8861 15.5472 57.2656 15.2178C57.6523 14.8883 58.1322 14.7236 58.7051 14.7236C59.2852 14.7236 59.7578 14.8919 60.123 15.2285C60.4954 15.5579 60.6816 15.9769 60.6816 16.4854C60.6816 17.0081 60.4919 17.4378 60.1123 17.7744C59.7399 18.1038 59.2529 18.2686 58.6514 18.2686ZM67.9326 18.2686C64.266 18.2686 62.4326 15.694 62.4326 10.5449C62.4326 7.8737 62.9268 5.83984 63.915 4.44336C64.9105 3.03971 66.3499 2.33789 68.2334 2.33789C71.8141 2.33789 73.6045 4.9554 73.6045 10.1904C73.6045 12.7972 73.1139 14.7952 72.1328 16.1846C71.1589 17.5739 69.7588 18.2686 67.9326 18.2686ZM68.083 4.92676C66.6149 4.92676 65.8809 6.77083 65.8809 10.459C65.8809 13.9323 66.6006 15.6689 68.04 15.6689C69.4437 15.6689 70.1455 13.8786 70.1455 10.2979C70.1455 6.71712 69.458 4.92676 68.083 4.92676ZM80.5869 18.2686C76.9202 18.2686 75.0869 15.694 75.0869 10.5449C75.0869 7.8737 75.5811 5.83984 76.5693 4.44336C77.5648 3.03971 79.0042 2.33789 80.8877 2.33789C84.4684 2.33789 86.2588 4.9554 86.2588 10.1904C86.2588 12.7972 85.7682 14.7952 84.7871 16.1846C83.8132 17.5739 82.4131 18.2686 80.5869 18.2686ZM80.7373 4.92676C79.2692 4.92676 78.5352 6.77083 78.5352 10.459C78.5352 13.9323 79.2549 15.6689 80.6943 15.6689C82.098 15.6689 82.7998 13.8786 82.7998 10.2979C82.7998 6.71712 82.1123 4.92676 80.7373 4.92676Z" fill="white"/>
</svg>
