<svg width="385" height="203" viewBox="0 0 385 203" fill="none" xmlns="http://www.w3.org/2000/svg">
<path d="M10.1406 151.861H8.6875L7.5 148.721H2.75L1.63281 151.861H0.171875L4.46875 140.658H5.82812L10.1406 151.861ZM7.07031 147.541L5.3125 142.768C5.25521 142.611 5.19792 142.361 5.14062 142.018H5.10938C5.05729 142.335 4.9974 142.585 4.92969 142.768L3.1875 147.541H7.07031ZM12.9062 151.861H11.625V140.018H12.9062V151.861ZM16.7812 151.861H15.5V140.018H16.7812V151.861ZM27.4766 151.783C27.1745 151.95 26.776 152.033 26.2812 152.033C24.8802 152.033 24.1797 151.252 24.1797 149.689V144.955H22.8047V143.861H24.1797V141.908L25.4609 141.494V143.861H27.4766V144.955H25.4609V149.463C25.4609 149.999 25.5521 150.382 25.7344 150.611C25.9167 150.84 26.2188 150.955 26.6406 150.955C26.9635 150.955 27.2422 150.867 27.4766 150.689V151.783ZM35.8281 151.861H34.5469V147.252C34.5469 145.585 33.9271 144.752 32.6875 144.752C32.0625 144.752 31.5365 144.994 31.1094 145.479C30.6823 145.958 30.4688 146.575 30.4688 147.33V151.861H29.1875V140.018H30.4688V145.189H30.5C31.1146 144.179 31.9896 143.674 33.125 143.674C34.9271 143.674 35.8281 144.76 35.8281 146.932V151.861ZM44.6797 148.182H39.0312C39.0521 149.072 39.2917 149.76 39.75 150.244C40.2083 150.729 40.8385 150.971 41.6406 150.971C42.5417 150.971 43.3698 150.674 44.125 150.08V151.283C43.4219 151.794 42.4922 152.049 41.3359 152.049C40.2057 152.049 39.3177 151.687 38.6719 150.963C38.026 150.234 37.7031 149.21 37.7031 147.893C37.7031 146.648 38.0547 145.635 38.7578 144.854C39.4661 144.067 40.3438 143.674 41.3906 143.674C42.4375 143.674 43.2474 144.012 43.8203 144.689C44.3932 145.367 44.6797 146.307 44.6797 147.51V148.182ZM43.3672 147.096C43.362 146.356 43.1823 145.781 42.8281 145.369C42.4792 144.958 41.9922 144.752 41.3672 144.752C40.763 144.752 40.25 144.968 39.8281 145.4C39.4062 145.833 39.1458 146.398 39.0469 147.096H43.3672ZM57 151.861H51.1875V140.658H52.5V150.674H57V151.861ZM61.8906 152.049C60.7083 152.049 59.763 151.676 59.0547 150.932C58.3516 150.182 58 149.189 58 147.955C58 146.611 58.3672 145.562 59.1016 144.807C59.8359 144.051 60.8281 143.674 62.0781 143.674C63.2708 143.674 64.2005 144.041 64.8672 144.775C65.5391 145.51 65.875 146.528 65.875 147.83C65.875 149.106 65.513 150.13 64.7891 150.9C64.0703 151.666 63.1042 152.049 61.8906 152.049ZM61.9844 144.752C61.1615 144.752 60.5104 145.033 60.0312 145.596C59.5521 146.153 59.3125 146.924 59.3125 147.908C59.3125 148.856 59.5547 149.604 60.0391 150.15C60.5234 150.697 61.1719 150.971 61.9844 150.971C62.8125 150.971 63.4479 150.702 63.8906 150.166C64.3385 149.63 64.5625 148.867 64.5625 147.877C64.5625 146.877 64.3385 146.106 63.8906 145.564C63.4479 145.023 62.8125 144.752 61.9844 144.752ZM72.0938 145.158C71.8698 144.986 71.5469 144.9 71.125 144.9C70.5781 144.9 70.1198 145.158 69.75 145.674C69.3854 146.189 69.2031 146.893 69.2031 147.783V151.861H67.9219V143.861H69.2031V145.51H69.2344C69.4167 144.947 69.6953 144.51 70.0703 144.197C70.4453 143.88 70.8646 143.721 71.3281 143.721C71.6615 143.721 71.9167 143.757 72.0938 143.83V145.158ZM79.9141 148.182H74.2656C74.2865 149.072 74.526 149.76 74.9844 150.244C75.4427 150.729 76.0729 150.971 76.875 150.971C77.776 150.971 78.6042 150.674 79.3594 150.08V151.283C78.6562 151.794 77.7266 152.049 76.5703 152.049C75.4401 152.049 74.5521 151.687 73.9062 150.963C73.2604 150.234 72.9375 149.21 72.9375 147.893C72.9375 146.648 73.2891 145.635 73.9922 144.854C74.7005 144.067 75.5781 143.674 76.625 143.674C77.6719 143.674 78.4818 144.012 79.0547 144.689C79.6276 145.367 79.9141 146.307 79.9141 147.51V148.182ZM78.6016 147.096C78.5964 146.356 78.4167 145.781 78.0625 145.369C77.7135 144.958 77.2266 144.752 76.6016 144.752C75.9974 144.752 75.4844 144.968 75.0625 145.4C74.6406 145.833 74.3802 146.398 74.2812 147.096H78.6016ZM93.2188 151.861H91.9375V147.268C91.9375 146.382 91.7995 145.742 91.5234 145.346C91.2526 144.95 90.7943 144.752 90.1484 144.752C89.6016 144.752 89.1354 145.002 88.75 145.502C88.3698 146.002 88.1797 146.601 88.1797 147.299V151.861H86.8984V147.111C86.8984 145.538 86.2917 144.752 85.0781 144.752C84.5156 144.752 84.0521 144.989 83.6875 145.463C83.3229 145.932 83.1406 146.544 83.1406 147.299V151.861H81.8594V143.861H83.1406V145.127H83.1719C83.7396 144.158 84.5677 143.674 85.6562 143.674C86.2031 143.674 86.6797 143.827 87.0859 144.135C87.4922 144.437 87.7708 144.835 87.9219 145.33C88.5156 144.226 89.401 143.674 90.5781 143.674C92.3385 143.674 93.2188 144.76 93.2188 146.932V151.861ZM101.516 151.861H100.203V140.658H101.516V151.861ZM105.609 150.705H105.578V155.541H104.297V143.861H105.578V145.268H105.609C106.24 144.205 107.161 143.674 108.375 143.674C109.406 143.674 110.211 144.033 110.789 144.752C111.367 145.465 111.656 146.424 111.656 147.627C111.656 148.965 111.331 150.038 110.68 150.846C110.029 151.648 109.138 152.049 108.008 152.049C106.971 152.049 106.172 151.601 105.609 150.705ZM105.578 147.479V148.596C105.578 149.257 105.792 149.82 106.219 150.283C106.651 150.742 107.198 150.971 107.859 150.971C108.635 150.971 109.242 150.674 109.68 150.08C110.122 149.486 110.344 148.661 110.344 147.604C110.344 146.713 110.138 146.015 109.727 145.51C109.315 145.005 108.758 144.752 108.055 144.752C107.31 144.752 106.711 145.012 106.258 145.533C105.805 146.049 105.578 146.697 105.578 147.479ZM113.219 151.572V150.197C113.917 150.713 114.685 150.971 115.523 150.971C116.648 150.971 117.211 150.596 117.211 149.846C117.211 149.632 117.161 149.452 117.062 149.307C116.969 149.156 116.839 149.023 116.672 148.908C116.51 148.794 116.318 148.692 116.094 148.604C115.875 148.51 115.638 148.413 115.383 148.314C115.029 148.174 114.716 148.033 114.445 147.893C114.18 147.747 113.956 147.585 113.773 147.408C113.596 147.226 113.461 147.02 113.367 146.791C113.279 146.562 113.234 146.294 113.234 145.986C113.234 145.611 113.32 145.281 113.492 144.994C113.664 144.702 113.893 144.46 114.18 144.268C114.466 144.07 114.792 143.921 115.156 143.822C115.526 143.723 115.906 143.674 116.297 143.674C116.99 143.674 117.609 143.794 118.156 144.033V145.33C117.568 144.945 116.891 144.752 116.125 144.752C115.885 144.752 115.669 144.781 115.477 144.838C115.284 144.89 115.117 144.965 114.977 145.064C114.841 145.163 114.734 145.283 114.656 145.424C114.583 145.559 114.547 145.71 114.547 145.877C114.547 146.085 114.583 146.26 114.656 146.4C114.734 146.541 114.846 146.666 114.992 146.775C115.138 146.885 115.315 146.984 115.523 147.072C115.732 147.161 115.969 147.257 116.234 147.361C116.589 147.497 116.906 147.637 117.188 147.783C117.469 147.924 117.708 148.085 117.906 148.268C118.104 148.445 118.255 148.65 118.359 148.885C118.469 149.119 118.523 149.398 118.523 149.721C118.523 150.117 118.435 150.46 118.258 150.752C118.086 151.044 117.854 151.286 117.562 151.479C117.271 151.671 116.935 151.814 116.555 151.908C116.174 152.002 115.776 152.049 115.359 152.049C114.536 152.049 113.823 151.89 113.219 151.572ZM126.969 151.861H125.688V150.596H125.656C125.125 151.564 124.302 152.049 123.188 152.049C121.281 152.049 120.328 150.913 120.328 148.643V143.861H121.602V148.439C121.602 150.127 122.247 150.971 123.539 150.971C124.164 150.971 124.677 150.742 125.078 150.283C125.484 149.82 125.688 149.215 125.688 148.471V143.861H126.969V151.861ZM140.922 151.861H139.641V147.268C139.641 146.382 139.503 145.742 139.227 145.346C138.956 144.95 138.497 144.752 137.852 144.752C137.305 144.752 136.839 145.002 136.453 145.502C136.073 146.002 135.883 146.601 135.883 147.299V151.861H134.602V147.111C134.602 145.538 133.995 144.752 132.781 144.752C132.219 144.752 131.755 144.989 131.391 145.463C131.026 145.932 130.844 146.544 130.844 147.299V151.861H129.562V143.861H130.844V145.127H130.875C131.443 144.158 132.271 143.674 133.359 143.674C133.906 143.674 134.383 143.827 134.789 144.135C135.195 144.437 135.474 144.835 135.625 145.33C136.219 144.226 137.104 143.674 138.281 143.674C140.042 143.674 140.922 144.76 140.922 146.932V151.861ZM154.562 151.221C154.562 154.158 153.156 155.627 150.344 155.627C149.354 155.627 148.49 155.439 147.75 155.064V153.783C148.651 154.283 149.51 154.533 150.328 154.533C152.297 154.533 153.281 153.486 153.281 151.393V150.518H153.25C152.641 151.538 151.724 152.049 150.5 152.049C149.505 152.049 148.703 151.695 148.094 150.986C147.49 150.273 147.188 149.317 147.188 148.119C147.188 146.76 147.513 145.679 148.164 144.877C148.82 144.075 149.716 143.674 150.852 143.674C151.93 143.674 152.729 144.106 153.25 144.971H153.281V143.861H154.562V151.221ZM153.281 148.244V147.064C153.281 146.429 153.065 145.885 152.633 145.432C152.206 144.979 151.672 144.752 151.031 144.752C150.24 144.752 149.62 145.041 149.172 145.619C148.724 146.192 148.5 146.997 148.5 148.033C148.5 148.924 148.714 149.637 149.141 150.174C149.573 150.705 150.143 150.971 150.852 150.971C151.57 150.971 152.154 150.715 152.602 150.205C153.055 149.695 153.281 149.041 153.281 148.244ZM163.586 148.182H157.938C157.958 149.072 158.198 149.76 158.656 150.244C159.115 150.729 159.745 150.971 160.547 150.971C161.448 150.971 162.276 150.674 163.031 150.08V151.283C162.328 151.794 161.398 152.049 160.242 152.049C159.112 152.049 158.224 151.687 157.578 150.963C156.932 150.234 156.609 149.21 156.609 147.893C156.609 146.648 156.961 145.635 157.664 144.854C158.372 144.067 159.25 143.674 160.297 143.674C161.344 143.674 162.154 144.012 162.727 144.689C163.299 145.367 163.586 146.307 163.586 147.51V148.182ZM162.273 147.096C162.268 146.356 162.089 145.781 161.734 145.369C161.385 144.958 160.898 144.752 160.273 144.752C159.669 144.752 159.156 144.968 158.734 145.4C158.312 145.833 158.052 146.398 157.953 147.096H162.273ZM172.172 151.861H170.891V147.299C170.891 145.601 170.271 144.752 169.031 144.752C168.391 144.752 167.859 144.994 167.438 145.479C167.021 145.958 166.812 146.564 166.812 147.299V151.861H165.531V143.861H166.812V145.189H166.844C167.448 144.179 168.323 143.674 169.469 143.674C170.344 143.674 171.013 143.958 171.477 144.525C171.94 145.088 172.172 145.903 172.172 146.971V151.861ZM181.023 148.182H175.375C175.396 149.072 175.635 149.76 176.094 150.244C176.552 150.729 177.182 150.971 177.984 150.971C178.885 150.971 179.714 150.674 180.469 150.08V151.283C179.766 151.794 178.836 152.049 177.68 152.049C176.549 152.049 175.661 151.687 175.016 150.963C174.37 150.234 174.047 149.21 174.047 147.893C174.047 146.648 174.398 145.635 175.102 144.854C175.81 144.067 176.688 143.674 177.734 143.674C178.781 143.674 179.591 144.012 180.164 144.689C180.737 145.367 181.023 146.307 181.023 147.51V148.182ZM179.711 147.096C179.706 146.356 179.526 145.781 179.172 145.369C178.823 144.958 178.336 144.752 177.711 144.752C177.107 144.752 176.594 144.968 176.172 145.4C175.75 145.833 175.49 146.398 175.391 147.096H179.711ZM187.141 145.158C186.917 144.986 186.594 144.9 186.172 144.9C185.625 144.9 185.167 145.158 184.797 145.674C184.432 146.189 184.25 146.893 184.25 147.783V151.861H182.969V143.861H184.25V145.51H184.281C184.464 144.947 184.742 144.51 185.117 144.197C185.492 143.88 185.911 143.721 186.375 143.721C186.708 143.721 186.964 143.757 187.141 143.83V145.158ZM194.258 151.861H192.977V150.611H192.945C192.388 151.57 191.568 152.049 190.484 152.049C189.688 152.049 189.062 151.838 188.609 151.416C188.161 150.994 187.938 150.434 187.938 149.736C187.938 148.242 188.818 147.372 190.578 147.127L192.977 146.791C192.977 145.432 192.427 144.752 191.328 144.752C190.365 144.752 189.495 145.08 188.719 145.736V144.424C189.505 143.924 190.411 143.674 191.438 143.674C193.318 143.674 194.258 144.669 194.258 146.658V151.861ZM192.977 147.814L191.047 148.08C190.453 148.163 190.005 148.312 189.703 148.525C189.401 148.734 189.25 149.106 189.25 149.643C189.25 150.033 189.388 150.354 189.664 150.604C189.945 150.848 190.318 150.971 190.781 150.971C191.417 150.971 191.94 150.749 192.352 150.307C192.768 149.859 192.977 149.294 192.977 148.611V147.814ZM200.383 151.783C200.081 151.95 199.682 152.033 199.188 152.033C197.786 152.033 197.086 151.252 197.086 149.689V144.955H195.711V143.861H197.086V141.908L198.367 141.494V143.861H200.383V144.955H198.367V149.463C198.367 149.999 198.458 150.382 198.641 150.611C198.823 150.84 199.125 150.955 199.547 150.955C199.87 150.955 200.148 150.867 200.383 150.689V151.783ZM205.438 152.049C204.255 152.049 203.31 151.676 202.602 150.932C201.898 150.182 201.547 149.189 201.547 147.955C201.547 146.611 201.914 145.562 202.648 144.807C203.383 144.051 204.375 143.674 205.625 143.674C206.818 143.674 207.747 144.041 208.414 144.775C209.086 145.51 209.422 146.528 209.422 147.83C209.422 149.106 209.06 150.13 208.336 150.9C207.617 151.666 206.651 152.049 205.438 152.049ZM205.531 144.752C204.708 144.752 204.057 145.033 203.578 145.596C203.099 146.153 202.859 146.924 202.859 147.908C202.859 148.856 203.102 149.604 203.586 150.15C204.07 150.697 204.719 150.971 205.531 150.971C206.359 150.971 206.995 150.702 207.438 150.166C207.885 149.63 208.109 148.867 208.109 147.877C208.109 146.877 207.885 146.106 207.438 145.564C206.995 145.023 206.359 144.752 205.531 144.752ZM215.641 145.158C215.417 144.986 215.094 144.9 214.672 144.9C214.125 144.9 213.667 145.158 213.297 145.674C212.932 146.189 212.75 146.893 212.75 147.783V151.861H211.469V143.861H212.75V145.51H212.781C212.964 144.947 213.242 144.51 213.617 144.197C213.992 143.88 214.411 143.721 214.875 143.721C215.208 143.721 215.464 143.757 215.641 143.83V145.158ZM216.547 151.572V150.197C217.245 150.713 218.013 150.971 218.852 150.971C219.977 150.971 220.539 150.596 220.539 149.846C220.539 149.632 220.49 149.452 220.391 149.307C220.297 149.156 220.167 149.023 220 148.908C219.839 148.794 219.646 148.692 219.422 148.604C219.203 148.51 218.966 148.413 218.711 148.314C218.357 148.174 218.044 148.033 217.773 147.893C217.508 147.747 217.284 147.585 217.102 147.408C216.924 147.226 216.789 147.02 216.695 146.791C216.607 146.562 216.562 146.294 216.562 145.986C216.562 145.611 216.648 145.281 216.82 144.994C216.992 144.702 217.221 144.46 217.508 144.268C217.794 144.07 218.12 143.921 218.484 143.822C218.854 143.723 219.234 143.674 219.625 143.674C220.318 143.674 220.938 143.794 221.484 144.033V145.33C220.896 144.945 220.219 144.752 219.453 144.752C219.214 144.752 218.997 144.781 218.805 144.838C218.612 144.89 218.445 144.965 218.305 145.064C218.169 145.163 218.062 145.283 217.984 145.424C217.911 145.559 217.875 145.71 217.875 145.877C217.875 146.085 217.911 146.26 217.984 146.4C218.062 146.541 218.174 146.666 218.32 146.775C218.466 146.885 218.643 146.984 218.852 147.072C219.06 147.161 219.297 147.257 219.562 147.361C219.917 147.497 220.234 147.637 220.516 147.783C220.797 147.924 221.036 148.085 221.234 148.268C221.432 148.445 221.583 148.65 221.688 148.885C221.797 149.119 221.852 149.398 221.852 149.721C221.852 150.117 221.763 150.46 221.586 150.752C221.414 151.044 221.182 151.286 220.891 151.479C220.599 151.671 220.263 151.814 219.883 151.908C219.503 152.002 219.104 152.049 218.688 152.049C217.865 152.049 217.151 151.89 216.547 151.572ZM231.562 152.049C230.38 152.049 229.435 151.676 228.727 150.932C228.023 150.182 227.672 149.189 227.672 147.955C227.672 146.611 228.039 145.562 228.773 144.807C229.508 144.051 230.5 143.674 231.75 143.674C232.943 143.674 233.872 144.041 234.539 144.775C235.211 145.51 235.547 146.528 235.547 147.83C235.547 149.106 235.185 150.13 234.461 150.9C233.742 151.666 232.776 152.049 231.562 152.049ZM231.656 144.752C230.833 144.752 230.182 145.033 229.703 145.596C229.224 146.153 228.984 146.924 228.984 147.908C228.984 148.856 229.227 149.604 229.711 150.15C230.195 150.697 230.844 150.971 231.656 150.971C232.484 150.971 233.12 150.702 233.562 150.166C234.01 149.63 234.234 148.867 234.234 147.877C234.234 146.877 234.01 146.106 233.562 145.564C233.12 145.023 232.484 144.752 231.656 144.752ZM244.234 151.861H242.953V147.299C242.953 145.601 242.333 144.752 241.094 144.752C240.453 144.752 239.922 144.994 239.5 145.479C239.083 145.958 238.875 146.564 238.875 147.299V151.861H237.594V143.861H238.875V145.189H238.906C239.51 144.179 240.385 143.674 241.531 143.674C242.406 143.674 243.076 143.958 243.539 144.525C244.003 145.088 244.234 145.903 244.234 146.971V151.861ZM254.758 151.783C254.456 151.95 254.057 152.033 253.562 152.033C252.161 152.033 251.461 151.252 251.461 149.689V144.955H250.086V143.861H251.461V141.908L252.742 141.494V143.861H254.758V144.955H252.742V149.463C252.742 149.999 252.833 150.382 253.016 150.611C253.198 150.84 253.5 150.955 253.922 150.955C254.245 150.955 254.523 150.867 254.758 150.689V151.783ZM263.109 151.861H261.828V147.252C261.828 145.585 261.208 144.752 259.969 144.752C259.344 144.752 258.818 144.994 258.391 145.479C257.964 145.958 257.75 146.575 257.75 147.33V151.861H256.469V140.018H257.75V145.189H257.781C258.396 144.179 259.271 143.674 260.406 143.674C262.208 143.674 263.109 144.76 263.109 146.932V151.861ZM271.961 148.182H266.312C266.333 149.072 266.573 149.76 267.031 150.244C267.49 150.729 268.12 150.971 268.922 150.971C269.823 150.971 270.651 150.674 271.406 150.08V151.283C270.703 151.794 269.773 152.049 268.617 152.049C267.487 152.049 266.599 151.687 265.953 150.963C265.307 150.234 264.984 149.21 264.984 147.893C264.984 146.648 265.336 145.635 266.039 144.854C266.747 144.067 267.625 143.674 268.672 143.674C269.719 143.674 270.529 144.012 271.102 144.689C271.674 145.367 271.961 146.307 271.961 147.51V148.182ZM270.648 147.096C270.643 146.356 270.464 145.781 270.109 145.369C269.76 144.958 269.273 144.752 268.648 144.752C268.044 144.752 267.531 144.968 267.109 145.4C266.688 145.833 266.427 146.398 266.328 147.096H270.648ZM279.781 151.861H278.469V140.658H279.781V151.861ZM289.203 151.861H287.922V147.299C287.922 145.601 287.302 144.752 286.062 144.752C285.422 144.752 284.891 144.994 284.469 145.479C284.052 145.958 283.844 146.564 283.844 147.299V151.861H282.562V143.861H283.844V145.189H283.875C284.479 144.179 285.354 143.674 286.5 143.674C287.375 143.674 288.044 143.958 288.508 144.525C288.971 145.088 289.203 145.903 289.203 146.971V151.861ZM295.336 151.783C295.034 151.95 294.635 152.033 294.141 152.033C292.74 152.033 292.039 151.252 292.039 149.689V144.955H290.664V143.861H292.039V141.908L293.32 141.494V143.861H295.336V144.955H293.32V149.463C293.32 149.999 293.411 150.382 293.594 150.611C293.776 150.84 294.078 150.955 294.5 150.955C294.823 150.955 295.102 150.867 295.336 150.689V151.783ZM303.477 148.182H297.828C297.849 149.072 298.089 149.76 298.547 150.244C299.005 150.729 299.635 150.971 300.438 150.971C301.339 150.971 302.167 150.674 302.922 150.08V151.283C302.219 151.794 301.289 152.049 300.133 152.049C299.003 152.049 298.115 151.687 297.469 150.963C296.823 150.234 296.5 149.21 296.5 147.893C296.5 146.648 296.852 145.635 297.555 144.854C298.263 144.067 299.141 143.674 300.188 143.674C301.234 143.674 302.044 144.012 302.617 144.689C303.19 145.367 303.477 146.307 303.477 147.51V148.182ZM302.164 147.096C302.159 146.356 301.979 145.781 301.625 145.369C301.276 144.958 300.789 144.752 300.164 144.752C299.56 144.752 299.047 144.968 298.625 145.4C298.203 145.833 297.943 146.398 297.844 147.096H302.164ZM309.594 145.158C309.37 144.986 309.047 144.9 308.625 144.9C308.078 144.9 307.62 145.158 307.25 145.674C306.885 146.189 306.703 146.893 306.703 147.783V151.861H305.422V143.861H306.703V145.51H306.734C306.917 144.947 307.195 144.51 307.57 144.197C307.945 143.88 308.365 143.721 308.828 143.721C309.161 143.721 309.417 143.757 309.594 143.83V145.158ZM317.625 151.861H316.344V147.299C316.344 145.601 315.724 144.752 314.484 144.752C313.844 144.752 313.312 144.994 312.891 145.479C312.474 145.958 312.266 146.564 312.266 147.299V151.861H310.984V143.861H312.266V145.189H312.297C312.901 144.179 313.776 143.674 314.922 143.674C315.797 143.674 316.466 143.958 316.93 144.525C317.393 145.088 317.625 145.903 317.625 146.971V151.861ZM326.477 148.182H320.828C320.849 149.072 321.089 149.76 321.547 150.244C322.005 150.729 322.635 150.971 323.438 150.971C324.339 150.971 325.167 150.674 325.922 150.08V151.283C325.219 151.794 324.289 152.049 323.133 152.049C322.003 152.049 321.115 151.687 320.469 150.963C319.823 150.234 319.5 149.21 319.5 147.893C319.5 146.648 319.852 145.635 320.555 144.854C321.263 144.067 322.141 143.674 323.188 143.674C324.234 143.674 325.044 144.012 325.617 144.689C326.19 145.367 326.477 146.307 326.477 147.51V148.182ZM325.164 147.096C325.159 146.356 324.979 145.781 324.625 145.369C324.276 144.958 323.789 144.752 323.164 144.752C322.56 144.752 322.047 144.968 321.625 145.4C321.203 145.833 320.943 146.398 320.844 147.096H325.164ZM332.133 151.783C331.831 151.95 331.432 152.033 330.938 152.033C329.536 152.033 328.836 151.252 328.836 149.689V144.955H327.461V143.861H328.836V141.908L330.117 141.494V143.861H332.133V144.955H330.117V149.463C330.117 149.999 330.208 150.382 330.391 150.611C330.573 150.84 330.875 150.955 331.297 150.955C331.62 150.955 331.898 150.867 332.133 150.689V151.783ZM341.945 151.783C341.643 151.95 341.245 152.033 340.75 152.033C339.349 152.033 338.648 151.252 338.648 149.689V144.955H337.273V143.861H338.648V141.908L339.93 141.494V143.861H341.945V144.955H339.93V149.463C339.93 149.999 340.021 150.382 340.203 150.611C340.385 150.84 340.688 150.955 341.109 150.955C341.432 150.955 341.711 150.867 341.945 150.689V151.783ZM350.086 148.182H344.438C344.458 149.072 344.698 149.76 345.156 150.244C345.615 150.729 346.245 150.971 347.047 150.971C347.948 150.971 348.776 150.674 349.531 150.08V151.283C348.828 151.794 347.898 152.049 346.742 152.049C345.612 152.049 344.724 151.687 344.078 150.963C343.432 150.234 343.109 149.21 343.109 147.893C343.109 146.648 343.461 145.635 344.164 144.854C344.872 144.067 345.75 143.674 346.797 143.674C347.844 143.674 348.654 144.012 349.227 144.689C349.799 145.367 350.086 146.307 350.086 147.51V148.182ZM348.773 147.096C348.768 146.356 348.589 145.781 348.234 145.369C347.885 144.958 347.398 144.752 346.773 144.752C346.169 144.752 345.656 144.968 345.234 145.4C344.812 145.833 344.552 146.398 344.453 147.096H348.773ZM358.672 151.861H357.391V147.299C357.391 145.601 356.771 144.752 355.531 144.752C354.891 144.752 354.359 144.994 353.938 145.479C353.521 145.958 353.312 146.564 353.312 147.299V151.861H352.031V143.861H353.312V145.189H353.344C353.948 144.179 354.823 143.674 355.969 143.674C356.844 143.674 357.513 143.958 357.977 144.525C358.44 145.088 358.672 145.903 358.672 146.971V151.861ZM367.922 151.861H366.641V150.502H366.609C366.016 151.533 365.099 152.049 363.859 152.049C362.854 152.049 362.049 151.692 361.445 150.979C360.846 150.26 360.547 149.283 360.547 148.049C360.547 146.726 360.88 145.666 361.547 144.869C362.214 144.072 363.102 143.674 364.211 143.674C365.31 143.674 366.109 144.106 366.609 144.971H366.641V140.018H367.922V151.861ZM366.641 148.244V147.064C366.641 146.419 366.427 145.872 366 145.424C365.573 144.976 365.031 144.752 364.375 144.752C363.594 144.752 362.979 145.038 362.531 145.611C362.083 146.184 361.859 146.976 361.859 147.986C361.859 148.908 362.073 149.637 362.5 150.174C362.932 150.705 363.51 150.971 364.234 150.971C364.948 150.971 365.526 150.713 365.969 150.197C366.417 149.682 366.641 149.031 366.641 148.244ZM5.00781 174.783C4.70573 174.95 4.30729 175.033 3.8125 175.033C2.41146 175.033 1.71094 174.252 1.71094 172.689V167.955H0.335938V166.861H1.71094V164.908L2.99219 164.494V166.861H5.00781V167.955H2.99219V172.463C2.99219 172.999 3.08333 173.382 3.26562 173.611C3.44792 173.84 3.75 173.955 4.17188 173.955C4.49479 173.955 4.77344 173.867 5.00781 173.689V174.783ZM10.0625 175.049C8.88021 175.049 7.9349 174.676 7.22656 173.932C6.52344 173.182 6.17188 172.189 6.17188 170.955C6.17188 169.611 6.53906 168.562 7.27344 167.807C8.00781 167.051 9 166.674 10.25 166.674C11.4427 166.674 12.3724 167.041 13.0391 167.775C13.7109 168.51 14.0469 169.528 14.0469 170.83C14.0469 172.106 13.6849 173.13 12.9609 173.9C12.2422 174.666 11.276 175.049 10.0625 175.049ZM10.1562 167.752C9.33333 167.752 8.68229 168.033 8.20312 168.596C7.72396 169.153 7.48438 169.924 7.48438 170.908C7.48438 171.856 7.72656 172.604 8.21094 173.15C8.69531 173.697 9.34375 173.971 10.1562 173.971C10.9844 173.971 11.6198 173.702 12.0625 173.166C12.5104 172.63 12.7344 171.867 12.7344 170.877C12.7344 169.877 12.5104 169.106 12.0625 168.564C11.6198 168.023 10.9844 167.752 10.1562 167.752ZM24.6562 168.158C24.4323 167.986 24.1094 167.9 23.6875 167.9C23.1406 167.9 22.6823 168.158 22.3125 168.674C21.9479 169.189 21.7656 169.893 21.7656 170.783V174.861H20.4844V166.861H21.7656V168.51H21.7969C21.9792 167.947 22.2578 167.51 22.6328 167.197C23.0078 166.88 23.4271 166.721 23.8906 166.721C24.224 166.721 24.4792 166.757 24.6562 166.83V168.158ZM32.4766 171.182H26.8281C26.849 172.072 27.0885 172.76 27.5469 173.244C28.0052 173.729 28.6354 173.971 29.4375 173.971C30.3385 173.971 31.1667 173.674 31.9219 173.08V174.283C31.2188 174.794 30.2891 175.049 29.1328 175.049C28.0026 175.049 27.1146 174.687 26.4688 173.963C25.8229 173.234 25.5 172.21 25.5 170.893C25.5 169.648 25.8516 168.635 26.5547 167.854C27.263 167.067 28.1406 166.674 29.1875 166.674C30.2344 166.674 31.0443 167.012 31.6172 167.689C32.1901 168.367 32.4766 169.307 32.4766 170.51V171.182ZM31.1641 170.096C31.1589 169.356 30.9792 168.781 30.625 168.369C30.276 167.958 29.7891 167.752 29.1641 167.752C28.5599 167.752 28.0469 167.968 27.625 168.4C27.2031 168.833 26.9427 169.398 26.8438 170.096H31.1641ZM35.7344 173.705H35.7031V178.541H34.4219V166.861H35.7031V168.268H35.7344C36.3646 167.205 37.2865 166.674 38.5 166.674C39.5312 166.674 40.3359 167.033 40.9141 167.752C41.4922 168.465 41.7812 169.424 41.7812 170.627C41.7812 171.965 41.4557 173.038 40.8047 173.846C40.1536 174.648 39.263 175.049 38.1328 175.049C37.0964 175.049 36.2969 174.601 35.7344 173.705ZM35.7031 170.479V171.596C35.7031 172.257 35.9167 172.82 36.3438 173.283C36.776 173.742 37.3229 173.971 37.9844 173.971C38.7604 173.971 39.3672 173.674 39.8047 173.08C40.2474 172.486 40.4688 171.661 40.4688 170.604C40.4688 169.713 40.263 169.015 39.8516 168.51C39.4401 168.005 38.8828 167.752 38.1797 167.752C37.4349 167.752 36.8359 168.012 36.3828 168.533C35.9297 169.049 35.7031 169.697 35.7031 170.479ZM50.2578 171.182H44.6094C44.6302 172.072 44.8698 172.76 45.3281 173.244C45.7865 173.729 46.4167 173.971 47.2188 173.971C48.1198 173.971 48.9479 173.674 49.7031 173.08V174.283C49 174.794 48.0703 175.049 46.9141 175.049C45.7839 175.049 44.8958 174.687 44.25 173.963C43.6042 173.234 43.2812 172.21 43.2812 170.893C43.2812 169.648 43.6328 168.635 44.3359 167.854C45.0443 167.067 45.9219 166.674 46.9688 166.674C48.0156 166.674 48.8255 167.012 49.3984 167.689C49.9714 168.367 50.2578 169.307 50.2578 170.51V171.182ZM48.9453 170.096C48.9401 169.356 48.7604 168.781 48.4062 168.369C48.0573 167.958 47.5703 167.752 46.9453 167.752C46.3411 167.752 45.8281 167.968 45.4062 168.4C44.9844 168.833 44.724 169.398 44.625 170.096H48.9453ZM57.9297 174.861H56.6484V173.611H56.6172C56.0599 174.57 55.2396 175.049 54.1562 175.049C53.3594 175.049 52.7344 174.838 52.2812 174.416C51.8333 173.994 51.6094 173.434 51.6094 172.736C51.6094 171.242 52.4896 170.372 54.25 170.127L56.6484 169.791C56.6484 168.432 56.099 167.752 55 167.752C54.0365 167.752 53.1667 168.08 52.3906 168.736V167.424C53.1771 166.924 54.0833 166.674 55.1094 166.674C56.9896 166.674 57.9297 167.669 57.9297 169.658V174.861ZM56.6484 170.814L54.7188 171.08C54.125 171.163 53.6771 171.312 53.375 171.525C53.0729 171.734 52.9219 172.106 52.9219 172.643C52.9219 173.033 53.0599 173.354 53.3359 173.604C53.6172 173.848 53.9896 173.971 54.4531 173.971C55.0885 173.971 55.612 173.749 56.0234 173.307C56.4401 172.859 56.6484 172.294 56.6484 171.611V170.814ZM64.0547 174.783C63.7526 174.95 63.3542 175.033 62.8594 175.033C61.4583 175.033 60.7578 174.252 60.7578 172.689V167.955H59.3828V166.861H60.7578V164.908L62.0391 164.494V166.861H64.0547V167.955H62.0391V172.463C62.0391 172.999 62.1302 173.382 62.3125 173.611C62.4948 173.84 62.7969 173.955 63.2188 173.955C63.5417 173.955 63.8203 173.867 64.0547 173.689V174.783ZM71.4688 173.705H71.4375V178.541H70.1562V166.861H71.4375V168.268H71.4688C72.099 167.205 73.0208 166.674 74.2344 166.674C75.2656 166.674 76.0703 167.033 76.6484 167.752C77.2266 168.465 77.5156 169.424 77.5156 170.627C77.5156 171.965 77.1901 173.038 76.5391 173.846C75.888 174.648 74.9974 175.049 73.8672 175.049C72.8307 175.049 72.0312 174.601 71.4688 173.705ZM71.4375 170.479V171.596C71.4375 172.257 71.651 172.82 72.0781 173.283C72.5104 173.742 73.0573 173.971 73.7188 173.971C74.4948 173.971 75.1016 173.674 75.5391 173.08C75.9818 172.486 76.2031 171.661 76.2031 170.604C76.2031 169.713 75.9974 169.015 75.5859 168.51C75.1745 168.005 74.6172 167.752 73.9141 167.752C73.1693 167.752 72.5703 168.012 72.1172 168.533C71.6641 169.049 71.4375 169.697 71.4375 170.479ZM83.7344 168.158C83.5104 167.986 83.1875 167.9 82.7656 167.9C82.2188 167.9 81.7604 168.158 81.3906 168.674C81.026 169.189 80.8438 169.893 80.8438 170.783V174.861H79.5625V166.861H80.8438V168.51H80.875C81.0573 167.947 81.3359 167.51 81.7109 167.197C82.0859 166.88 82.5052 166.721 82.9688 166.721C83.3021 166.721 83.5573 166.757 83.7344 166.83V168.158ZM91.5547 171.182H85.9062C85.9271 172.072 86.1667 172.76 86.625 173.244C87.0833 173.729 87.7135 173.971 88.5156 173.971C89.4167 173.971 90.2448 173.674 91 173.08V174.283C90.2969 174.794 89.3672 175.049 88.2109 175.049C87.0807 175.049 86.1927 174.687 85.5469 173.963C84.901 173.234 84.5781 172.21 84.5781 170.893C84.5781 169.648 84.9297 168.635 85.6328 167.854C86.3411 167.067 87.2188 166.674 88.2656 166.674C89.3125 166.674 90.1224 167.012 90.6953 167.689C91.2682 168.367 91.5547 169.307 91.5547 170.51V171.182ZM90.2422 170.096C90.237 169.356 90.0573 168.781 89.7031 168.369C89.3542 167.958 88.8672 167.752 88.2422 167.752C87.638 167.752 87.125 167.968 86.7031 168.4C86.2812 168.833 86.0208 169.398 85.9219 170.096H90.2422ZM100.328 174.861H99.0469V173.502H99.0156C98.4219 174.533 97.5052 175.049 96.2656 175.049C95.2604 175.049 94.4557 174.692 93.8516 173.979C93.2526 173.26 92.9531 172.283 92.9531 171.049C92.9531 169.726 93.2865 168.666 93.9531 167.869C94.6198 167.072 95.5078 166.674 96.6172 166.674C97.7161 166.674 98.5156 167.106 99.0156 167.971H99.0469V163.018H100.328V174.861ZM99.0469 171.244V170.064C99.0469 169.419 98.8333 168.872 98.4062 168.424C97.9792 167.976 97.4375 167.752 96.7812 167.752C96 167.752 95.3854 168.038 94.9375 168.611C94.4896 169.184 94.2656 169.976 94.2656 170.986C94.2656 171.908 94.4792 172.637 94.9062 173.174C95.3385 173.705 95.9167 173.971 96.6406 173.971C97.3542 173.971 97.9323 173.713 98.375 173.197C98.8229 172.682 99.0469 172.031 99.0469 171.244ZM109.352 171.182H103.703C103.724 172.072 103.964 172.76 104.422 173.244C104.88 173.729 105.51 173.971 106.312 173.971C107.214 173.971 108.042 173.674 108.797 173.08V174.283C108.094 174.794 107.164 175.049 106.008 175.049C104.878 175.049 103.99 174.687 103.344 173.963C102.698 173.234 102.375 172.21 102.375 170.893C102.375 169.648 102.727 168.635 103.43 167.854C104.138 167.067 105.016 166.674 106.062 166.674C107.109 166.674 107.919 167.012 108.492 167.689C109.065 168.367 109.352 169.307 109.352 170.51V171.182ZM108.039 170.096C108.034 169.356 107.854 168.781 107.5 168.369C107.151 167.958 106.664 167.752 106.039 167.752C105.435 167.752 104.922 167.968 104.5 168.4C104.078 168.833 103.818 169.398 103.719 170.096H108.039ZM115.25 164.143C115 164.002 114.716 163.932 114.398 163.932C113.503 163.932 113.055 164.497 113.055 165.627V166.861H114.93V167.955H113.055V174.861H111.781V167.955H110.414V166.861H111.781V165.564C111.781 164.726 112.023 164.064 112.508 163.58C112.992 163.09 113.596 162.846 114.32 162.846C114.711 162.846 115.021 162.893 115.25 162.986V164.143ZM116.969 164.83C116.74 164.83 116.544 164.752 116.383 164.596C116.221 164.439 116.141 164.242 116.141 164.002C116.141 163.762 116.221 163.564 116.383 163.408C116.544 163.247 116.74 163.166 116.969 163.166C117.203 163.166 117.401 163.247 117.562 163.408C117.729 163.564 117.812 163.762 117.812 164.002C117.812 164.231 117.729 164.426 117.562 164.588C117.401 164.749 117.203 164.83 116.969 164.83ZM117.594 174.861H116.312V166.861H117.594V174.861ZM126.828 174.861H125.547V170.299C125.547 168.601 124.927 167.752 123.688 167.752C123.047 167.752 122.516 167.994 122.094 168.479C121.677 168.958 121.469 169.564 121.469 170.299V174.861H120.188V166.861H121.469V168.189H121.5C122.104 167.179 122.979 166.674 124.125 166.674C125 166.674 125.669 166.958 126.133 167.525C126.596 168.088 126.828 168.903 126.828 169.971V174.861ZM135.68 171.182H130.031C130.052 172.072 130.292 172.76 130.75 173.244C131.208 173.729 131.839 173.971 132.641 173.971C133.542 173.971 134.37 173.674 135.125 173.08V174.283C134.422 174.794 133.492 175.049 132.336 175.049C131.206 175.049 130.318 174.687 129.672 173.963C129.026 173.234 128.703 172.21 128.703 170.893C128.703 169.648 129.055 168.635 129.758 167.854C130.466 167.067 131.344 166.674 132.391 166.674C133.438 166.674 134.247 167.012 134.82 167.689C135.393 168.367 135.68 169.307 135.68 170.51V171.182ZM134.367 170.096C134.362 169.356 134.182 168.781 133.828 168.369C133.479 167.958 132.992 167.752 132.367 167.752C131.763 167.752 131.25 167.968 130.828 168.4C130.406 168.833 130.146 169.398 130.047 170.096H134.367ZM144.453 174.861H143.172V173.502H143.141C142.547 174.533 141.63 175.049 140.391 175.049C139.385 175.049 138.581 174.692 137.977 173.979C137.378 173.26 137.078 172.283 137.078 171.049C137.078 169.726 137.411 168.666 138.078 167.869C138.745 167.072 139.633 166.674 140.742 166.674C141.841 166.674 142.641 167.106 143.141 167.971H143.172V163.018H144.453V174.861ZM143.172 171.244V170.064C143.172 169.419 142.958 168.872 142.531 168.424C142.104 167.976 141.562 167.752 140.906 167.752C140.125 167.752 139.51 168.038 139.062 168.611C138.615 169.184 138.391 169.976 138.391 170.986C138.391 171.908 138.604 172.637 139.031 173.174C139.464 173.705 140.042 173.971 140.766 173.971C141.479 173.971 142.057 173.713 142.5 173.197C142.948 172.682 143.172 172.031 143.172 171.244ZM156.891 174.494C156.276 174.864 155.547 175.049 154.703 175.049C153.562 175.049 152.641 174.679 151.938 173.939C151.24 173.195 150.891 172.231 150.891 171.049C150.891 169.731 151.268 168.674 152.023 167.877C152.779 167.075 153.786 166.674 155.047 166.674C155.75 166.674 156.37 166.804 156.906 167.064V168.377C156.312 167.96 155.677 167.752 155 167.752C154.182 167.752 153.51 168.046 152.984 168.635C152.464 169.218 152.203 169.986 152.203 170.939C152.203 171.877 152.448 172.617 152.938 173.158C153.432 173.7 154.094 173.971 154.922 173.971C155.62 173.971 156.276 173.739 156.891 173.275V174.494ZM165.469 174.861H164.188V170.252C164.188 168.585 163.568 167.752 162.328 167.752C161.703 167.752 161.177 167.994 160.75 168.479C160.323 168.958 160.109 169.575 160.109 170.33V174.861H158.828V163.018H160.109V168.189H160.141C160.755 167.179 161.63 166.674 162.766 166.674C164.568 166.674 165.469 167.76 165.469 169.932V174.861ZM174.359 174.861H173.078V173.596H173.047C172.516 174.564 171.693 175.049 170.578 175.049C168.672 175.049 167.719 173.913 167.719 171.643V166.861H168.992V171.439C168.992 173.127 169.638 173.971 170.93 173.971C171.555 173.971 172.068 173.742 172.469 173.283C172.875 172.82 173.078 172.215 173.078 171.471V166.861H174.359V174.861ZM183.594 174.861H182.312V170.299C182.312 168.601 181.693 167.752 180.453 167.752C179.812 167.752 179.281 167.994 178.859 168.479C178.443 168.958 178.234 169.564 178.234 170.299V174.861H176.953V166.861H178.234V168.189H178.266C178.87 167.179 179.745 166.674 180.891 166.674C181.766 166.674 182.435 166.958 182.898 167.525C183.362 168.088 183.594 168.903 183.594 169.971V174.861ZM192.656 174.861H190.859L187.328 171.018H187.297V174.861H186.016V163.018H187.297V170.525H187.328L190.688 166.861H192.367L188.656 170.721L192.656 174.861ZM193.484 174.572V173.197C194.182 173.713 194.951 173.971 195.789 173.971C196.914 173.971 197.477 173.596 197.477 172.846C197.477 172.632 197.427 172.452 197.328 172.307C197.234 172.156 197.104 172.023 196.938 171.908C196.776 171.794 196.583 171.692 196.359 171.604C196.141 171.51 195.904 171.413 195.648 171.314C195.294 171.174 194.982 171.033 194.711 170.893C194.445 170.747 194.221 170.585 194.039 170.408C193.862 170.226 193.727 170.02 193.633 169.791C193.544 169.562 193.5 169.294 193.5 168.986C193.5 168.611 193.586 168.281 193.758 167.994C193.93 167.702 194.159 167.46 194.445 167.268C194.732 167.07 195.057 166.921 195.422 166.822C195.792 166.723 196.172 166.674 196.562 166.674C197.255 166.674 197.875 166.794 198.422 167.033V168.33C197.833 167.945 197.156 167.752 196.391 167.752C196.151 167.752 195.935 167.781 195.742 167.838C195.549 167.89 195.383 167.965 195.242 168.064C195.107 168.163 195 168.283 194.922 168.424C194.849 168.559 194.812 168.71 194.812 168.877C194.812 169.085 194.849 169.26 194.922 169.4C195 169.541 195.112 169.666 195.258 169.775C195.404 169.885 195.581 169.984 195.789 170.072C195.997 170.161 196.234 170.257 196.5 170.361C196.854 170.497 197.172 170.637 197.453 170.783C197.734 170.924 197.974 171.085 198.172 171.268C198.37 171.445 198.521 171.65 198.625 171.885C198.734 172.119 198.789 172.398 198.789 172.721C198.789 173.117 198.701 173.46 198.523 173.752C198.352 174.044 198.12 174.286 197.828 174.479C197.536 174.671 197.201 174.814 196.82 174.908C196.44 175.002 196.042 175.049 195.625 175.049C194.802 175.049 194.089 174.89 193.484 174.572ZM210.883 174.861H209.602V173.611H209.57C209.013 174.57 208.193 175.049 207.109 175.049C206.312 175.049 205.688 174.838 205.234 174.416C204.786 173.994 204.562 173.434 204.562 172.736C204.562 171.242 205.443 170.372 207.203 170.127L209.602 169.791C209.602 168.432 209.052 167.752 207.953 167.752C206.99 167.752 206.12 168.08 205.344 168.736V167.424C206.13 166.924 207.036 166.674 208.062 166.674C209.943 166.674 210.883 167.669 210.883 169.658V174.861ZM209.602 170.814L207.672 171.08C207.078 171.163 206.63 171.312 206.328 171.525C206.026 171.734 205.875 172.106 205.875 172.643C205.875 173.033 206.013 173.354 206.289 173.604C206.57 173.848 206.943 173.971 207.406 173.971C208.042 173.971 208.565 173.749 208.977 173.307C209.393 172.859 209.602 172.294 209.602 171.611V170.814ZM212.812 174.572V173.197C213.51 173.713 214.279 173.971 215.117 173.971C216.242 173.971 216.805 173.596 216.805 172.846C216.805 172.632 216.755 172.452 216.656 172.307C216.562 172.156 216.432 172.023 216.266 171.908C216.104 171.794 215.911 171.692 215.688 171.604C215.469 171.51 215.232 171.413 214.977 171.314C214.622 171.174 214.31 171.033 214.039 170.893C213.773 170.747 213.549 170.585 213.367 170.408C213.19 170.226 213.055 170.02 212.961 169.791C212.872 169.562 212.828 169.294 212.828 168.986C212.828 168.611 212.914 168.281 213.086 167.994C213.258 167.702 213.487 167.46 213.773 167.268C214.06 167.07 214.385 166.921 214.75 166.822C215.12 166.723 215.5 166.674 215.891 166.674C216.583 166.674 217.203 166.794 217.75 167.033V168.33C217.161 167.945 216.484 167.752 215.719 167.752C215.479 167.752 215.263 167.781 215.07 167.838C214.878 167.89 214.711 167.965 214.57 168.064C214.435 168.163 214.328 168.283 214.25 168.424C214.177 168.559 214.141 168.71 214.141 168.877C214.141 169.085 214.177 169.26 214.25 169.4C214.328 169.541 214.44 169.666 214.586 169.775C214.732 169.885 214.909 169.984 215.117 170.072C215.326 170.161 215.562 170.257 215.828 170.361C216.182 170.497 216.5 170.637 216.781 170.783C217.062 170.924 217.302 171.085 217.5 171.268C217.698 171.445 217.849 171.65 217.953 171.885C218.062 172.119 218.117 172.398 218.117 172.721C218.117 173.117 218.029 173.46 217.852 173.752C217.68 174.044 217.448 174.286 217.156 174.479C216.865 174.671 216.529 174.814 216.148 174.908C215.768 175.002 215.37 175.049 214.953 175.049C214.13 175.049 213.417 174.89 212.812 174.572ZM231.125 174.861H229.844V170.299C229.844 168.601 229.224 167.752 227.984 167.752C227.344 167.752 226.812 167.994 226.391 168.479C225.974 168.958 225.766 169.564 225.766 170.299V174.861H224.484V166.861H225.766V168.189H225.797C226.401 167.179 227.276 166.674 228.422 166.674C229.297 166.674 229.966 166.958 230.43 167.525C230.893 168.088 231.125 168.903 231.125 169.971V174.861ZM239.977 171.182H234.328C234.349 172.072 234.589 172.76 235.047 173.244C235.505 173.729 236.135 173.971 236.938 173.971C237.839 173.971 238.667 173.674 239.422 173.08V174.283C238.719 174.794 237.789 175.049 236.633 175.049C235.503 175.049 234.615 174.687 233.969 173.963C233.323 173.234 233 172.21 233 170.893C233 169.648 233.352 168.635 234.055 167.854C234.763 167.067 235.641 166.674 236.688 166.674C237.734 166.674 238.544 167.012 239.117 167.689C239.69 168.367 239.977 169.307 239.977 170.51V171.182ZM238.664 170.096C238.659 169.356 238.479 168.781 238.125 168.369C237.776 167.958 237.289 167.752 236.664 167.752C236.06 167.752 235.547 167.968 235.125 168.4C234.703 168.833 234.443 169.398 234.344 170.096H238.664ZM247.375 174.494C246.76 174.864 246.031 175.049 245.188 175.049C244.047 175.049 243.125 174.679 242.422 173.939C241.724 173.195 241.375 172.231 241.375 171.049C241.375 169.731 241.753 168.674 242.508 167.877C243.263 167.075 244.271 166.674 245.531 166.674C246.234 166.674 246.854 166.804 247.391 167.064V168.377C246.797 167.96 246.161 167.752 245.484 167.752C244.667 167.752 243.995 168.046 243.469 168.635C242.948 169.218 242.688 169.986 242.688 170.939C242.688 171.877 242.932 172.617 243.422 173.158C243.917 173.7 244.578 173.971 245.406 173.971C246.104 173.971 246.76 173.739 247.375 173.275V174.494ZM255.742 171.182H250.094C250.115 172.072 250.354 172.76 250.812 173.244C251.271 173.729 251.901 173.971 252.703 173.971C253.604 173.971 254.432 173.674 255.188 173.08V174.283C254.484 174.794 253.555 175.049 252.398 175.049C251.268 175.049 250.38 174.687 249.734 173.963C249.089 173.234 248.766 172.21 248.766 170.893C248.766 169.648 249.117 168.635 249.82 167.854C250.529 167.067 251.406 166.674 252.453 166.674C253.5 166.674 254.31 167.012 254.883 167.689C255.456 168.367 255.742 169.307 255.742 170.51V171.182ZM254.43 170.096C254.424 169.356 254.245 168.781 253.891 168.369C253.542 167.958 253.055 167.752 252.43 167.752C251.826 167.752 251.312 167.968 250.891 168.4C250.469 168.833 250.208 169.398 250.109 170.096H254.43ZM257.203 174.572V173.197C257.901 173.713 258.669 173.971 259.508 173.971C260.633 173.971 261.195 173.596 261.195 172.846C261.195 172.632 261.146 172.452 261.047 172.307C260.953 172.156 260.823 172.023 260.656 171.908C260.495 171.794 260.302 171.692 260.078 171.604C259.859 171.51 259.622 171.413 259.367 171.314C259.013 171.174 258.701 171.033 258.43 170.893C258.164 170.747 257.94 170.585 257.758 170.408C257.581 170.226 257.445 170.02 257.352 169.791C257.263 169.562 257.219 169.294 257.219 168.986C257.219 168.611 257.305 168.281 257.477 167.994C257.648 167.702 257.878 167.46 258.164 167.268C258.451 167.07 258.776 166.921 259.141 166.822C259.51 166.723 259.891 166.674 260.281 166.674C260.974 166.674 261.594 166.794 262.141 167.033V168.33C261.552 167.945 260.875 167.752 260.109 167.752C259.87 167.752 259.654 167.781 259.461 167.838C259.268 167.89 259.102 167.965 258.961 168.064C258.826 168.163 258.719 168.283 258.641 168.424C258.568 168.559 258.531 168.71 258.531 168.877C258.531 169.085 258.568 169.26 258.641 169.4C258.719 169.541 258.831 169.666 258.977 169.775C259.122 169.885 259.299 169.984 259.508 170.072C259.716 170.161 259.953 170.257 260.219 170.361C260.573 170.497 260.891 170.637 261.172 170.783C261.453 170.924 261.693 171.085 261.891 171.268C262.089 171.445 262.24 171.65 262.344 171.885C262.453 172.119 262.508 172.398 262.508 172.721C262.508 173.117 262.419 173.46 262.242 173.752C262.07 174.044 261.839 174.286 261.547 174.479C261.255 174.671 260.919 174.814 260.539 174.908C260.159 175.002 259.76 175.049 259.344 175.049C258.521 175.049 257.807 174.89 257.203 174.572ZM264 174.572V173.197C264.698 173.713 265.466 173.971 266.305 173.971C267.43 173.971 267.992 173.596 267.992 172.846C267.992 172.632 267.943 172.452 267.844 172.307C267.75 172.156 267.62 172.023 267.453 171.908C267.292 171.794 267.099 171.692 266.875 171.604C266.656 171.51 266.419 171.413 266.164 171.314C265.81 171.174 265.497 171.033 265.227 170.893C264.961 170.747 264.737 170.585 264.555 170.408C264.378 170.226 264.242 170.02 264.148 169.791C264.06 169.562 264.016 169.294 264.016 168.986C264.016 168.611 264.102 168.281 264.273 167.994C264.445 167.702 264.674 167.46 264.961 167.268C265.247 167.07 265.573 166.921 265.938 166.822C266.307 166.723 266.688 166.674 267.078 166.674C267.771 166.674 268.391 166.794 268.938 167.033V168.33C268.349 167.945 267.672 167.752 266.906 167.752C266.667 167.752 266.451 167.781 266.258 167.838C266.065 167.89 265.898 167.965 265.758 168.064C265.622 168.163 265.516 168.283 265.438 168.424C265.365 168.559 265.328 168.71 265.328 168.877C265.328 169.085 265.365 169.26 265.438 169.4C265.516 169.541 265.628 169.666 265.773 169.775C265.919 169.885 266.096 169.984 266.305 170.072C266.513 170.161 266.75 170.257 267.016 170.361C267.37 170.497 267.688 170.637 267.969 170.783C268.25 170.924 268.49 171.085 268.688 171.268C268.885 171.445 269.036 171.65 269.141 171.885C269.25 172.119 269.305 172.398 269.305 172.721C269.305 173.117 269.216 173.46 269.039 173.752C268.867 174.044 268.635 174.286 268.344 174.479C268.052 174.671 267.716 174.814 267.336 174.908C266.956 175.002 266.557 175.049 266.141 175.049C265.318 175.049 264.604 174.89 264 174.572ZM277.008 174.861H275.727V173.611H275.695C275.138 174.57 274.318 175.049 273.234 175.049C272.438 175.049 271.812 174.838 271.359 174.416C270.911 173.994 270.688 173.434 270.688 172.736C270.688 171.242 271.568 170.372 273.328 170.127L275.727 169.791C275.727 168.432 275.177 167.752 274.078 167.752C273.115 167.752 272.245 168.08 271.469 168.736V167.424C272.255 166.924 273.161 166.674 274.188 166.674C276.068 166.674 277.008 167.669 277.008 169.658V174.861ZM275.727 170.814L273.797 171.08C273.203 171.163 272.755 171.312 272.453 171.525C272.151 171.734 272 172.106 272 172.643C272 173.033 272.138 173.354 272.414 173.604C272.695 173.848 273.068 173.971 273.531 173.971C274.167 173.971 274.69 173.749 275.102 173.307C275.518 172.859 275.727 172.294 275.727 171.611V170.814ZM283.594 168.158C283.37 167.986 283.047 167.9 282.625 167.9C282.078 167.9 281.62 168.158 281.25 168.674C280.885 169.189 280.703 169.893 280.703 170.783V174.861H279.422V166.861H280.703V168.51H280.734C280.917 167.947 281.195 167.51 281.57 167.197C281.945 166.88 282.365 166.721 282.828 166.721C283.161 166.721 283.417 166.757 283.594 166.83V168.158ZM291.352 166.861L287.672 176.143C287.016 177.799 286.094 178.627 284.906 178.627C284.573 178.627 284.294 178.593 284.07 178.525V177.377C284.346 177.471 284.599 177.518 284.828 177.518C285.474 177.518 285.958 177.132 286.281 176.361L286.922 174.846L283.797 166.861H285.219L287.383 173.018C287.409 173.096 287.464 173.299 287.547 173.627H287.594C287.62 173.502 287.672 173.304 287.75 173.033L290.023 166.861H291.352ZM293.906 173.08L292.656 176.924H291.742L292.656 173.08H293.906ZM311.953 174.861H310.672V170.268C310.672 169.382 310.534 168.742 310.258 168.346C309.987 167.95 309.529 167.752 308.883 167.752C308.336 167.752 307.87 168.002 307.484 168.502C307.104 169.002 306.914 169.601 306.914 170.299V174.861H305.633V170.111C305.633 168.538 305.026 167.752 303.812 167.752C303.25 167.752 302.786 167.989 302.422 168.463C302.057 168.932 301.875 169.544 301.875 170.299V174.861H300.594V166.861H301.875V168.127H301.906C302.474 167.158 303.302 166.674 304.391 166.674C304.938 166.674 305.414 166.827 305.82 167.135C306.227 167.437 306.505 167.835 306.656 168.33C307.25 167.226 308.135 166.674 309.312 166.674C311.073 166.674 311.953 167.76 311.953 169.932V174.861ZM320.102 174.861H318.82V173.611H318.789C318.232 174.57 317.411 175.049 316.328 175.049C315.531 175.049 314.906 174.838 314.453 174.416C314.005 173.994 313.781 173.434 313.781 172.736C313.781 171.242 314.661 170.372 316.422 170.127L318.82 169.791C318.82 168.432 318.271 167.752 317.172 167.752C316.208 167.752 315.339 168.08 314.562 168.736V167.424C315.349 166.924 316.255 166.674 317.281 166.674C319.161 166.674 320.102 167.669 320.102 169.658V174.861ZM318.82 170.814L316.891 171.08C316.297 171.163 315.849 171.312 315.547 171.525C315.245 171.734 315.094 172.106 315.094 172.643C315.094 173.033 315.232 173.354 315.508 173.604C315.789 173.848 316.161 173.971 316.625 173.971C317.26 173.971 317.784 173.749 318.195 173.307C318.612 172.859 318.82 172.294 318.82 171.611V170.814ZM329.156 174.861H327.359L323.828 171.018H323.797V174.861H322.516V163.018H323.797V170.525H323.828L327.188 166.861H328.867L325.156 170.721L329.156 174.861ZM331.125 164.83C330.896 164.83 330.701 164.752 330.539 164.596C330.378 164.439 330.297 164.242 330.297 164.002C330.297 163.762 330.378 163.564 330.539 163.408C330.701 163.247 330.896 163.166 331.125 163.166C331.359 163.166 331.557 163.247 331.719 163.408C331.885 163.564 331.969 163.762 331.969 164.002C331.969 164.231 331.885 164.426 331.719 164.588C331.557 164.749 331.359 164.83 331.125 164.83ZM331.75 174.861H330.469V166.861H331.75V174.861ZM340.984 174.861H339.703V170.299C339.703 168.601 339.083 167.752 337.844 167.752C337.203 167.752 336.672 167.994 336.25 168.479C335.833 168.958 335.625 169.564 335.625 170.299V174.861H334.344V166.861H335.625V168.189H335.656C336.26 167.179 337.135 166.674 338.281 166.674C339.156 166.674 339.826 166.958 340.289 167.525C340.753 168.088 340.984 168.903 340.984 169.971V174.861ZM350.234 174.221C350.234 177.158 348.828 178.627 346.016 178.627C345.026 178.627 344.161 178.439 343.422 178.064V176.783C344.323 177.283 345.182 177.533 346 177.533C347.969 177.533 348.953 176.486 348.953 174.393V173.518H348.922C348.312 174.538 347.396 175.049 346.172 175.049C345.177 175.049 344.375 174.695 343.766 173.986C343.161 173.273 342.859 172.317 342.859 171.119C342.859 169.76 343.185 168.679 343.836 167.877C344.492 167.075 345.388 166.674 346.523 166.674C347.602 166.674 348.401 167.106 348.922 167.971H348.953V166.861H350.234V174.221ZM348.953 171.244V170.064C348.953 169.429 348.737 168.885 348.305 168.432C347.878 167.979 347.344 167.752 346.703 167.752C345.911 167.752 345.292 168.041 344.844 168.619C344.396 169.192 344.172 169.997 344.172 171.033C344.172 171.924 344.385 172.637 344.812 173.174C345.245 173.705 345.815 173.971 346.523 173.971C347.242 173.971 347.826 173.715 348.273 173.205C348.727 172.695 348.953 172.041 348.953 171.244ZM360.93 174.783C360.628 174.95 360.229 175.033 359.734 175.033C358.333 175.033 357.633 174.252 357.633 172.689V167.955H356.258V166.861H357.633V164.908L358.914 164.494V166.861H360.93V167.955H358.914V172.463C358.914 172.999 359.005 173.382 359.188 173.611C359.37 173.84 359.672 173.955 360.094 173.955C360.417 173.955 360.695 173.867 360.93 173.689V174.783ZM369.281 174.861H368V170.252C368 168.585 367.38 167.752 366.141 167.752C365.516 167.752 364.99 167.994 364.562 168.479C364.135 168.958 363.922 169.575 363.922 170.33V174.861H362.641V163.018H363.922V168.189H363.953C364.568 167.179 365.443 166.674 366.578 166.674C368.38 166.674 369.281 167.76 369.281 169.932V174.861ZM372.359 164.83C372.13 164.83 371.935 164.752 371.773 164.596C371.612 164.439 371.531 164.242 371.531 164.002C371.531 163.762 371.612 163.564 371.773 163.408C371.935 163.247 372.13 163.166 372.359 163.166C372.594 163.166 372.792 163.247 372.953 163.408C373.12 163.564 373.203 163.762 373.203 164.002C373.203 164.231 373.12 164.426 372.953 164.588C372.792 164.749 372.594 164.83 372.359 164.83ZM372.984 174.861H371.703V166.861H372.984V174.861ZM375.094 174.572V173.197C375.792 173.713 376.56 173.971 377.398 173.971C378.523 173.971 379.086 173.596 379.086 172.846C379.086 172.632 379.036 172.452 378.938 172.307C378.844 172.156 378.714 172.023 378.547 171.908C378.385 171.794 378.193 171.692 377.969 171.604C377.75 171.51 377.513 171.413 377.258 171.314C376.904 171.174 376.591 171.033 376.32 170.893C376.055 170.747 375.831 170.585 375.648 170.408C375.471 170.226 375.336 170.02 375.242 169.791C375.154 169.562 375.109 169.294 375.109 168.986C375.109 168.611 375.195 168.281 375.367 167.994C375.539 167.702 375.768 167.46 376.055 167.268C376.341 167.07 376.667 166.921 377.031 166.822C377.401 166.723 377.781 166.674 378.172 166.674C378.865 166.674 379.484 166.794 380.031 167.033V168.33C379.443 167.945 378.766 167.752 378 167.752C377.76 167.752 377.544 167.781 377.352 167.838C377.159 167.89 376.992 167.965 376.852 168.064C376.716 168.163 376.609 168.283 376.531 168.424C376.458 168.559 376.422 168.71 376.422 168.877C376.422 169.085 376.458 169.26 376.531 169.4C376.609 169.541 376.721 169.666 376.867 169.775C377.013 169.885 377.19 169.984 377.398 170.072C377.607 170.161 377.844 170.257 378.109 170.361C378.464 170.497 378.781 170.637 379.062 170.783C379.344 170.924 379.583 171.085 379.781 171.268C379.979 171.445 380.13 171.65 380.234 171.885C380.344 172.119 380.398 172.398 380.398 172.721C380.398 173.117 380.31 173.46 380.133 173.752C379.961 174.044 379.729 174.286 379.438 174.479C379.146 174.671 378.81 174.814 378.43 174.908C378.049 175.002 377.651 175.049 377.234 175.049C376.411 175.049 375.698 174.89 375.094 174.572ZM5.00781 197.783C4.70573 197.95 4.30729 198.033 3.8125 198.033C2.41146 198.033 1.71094 197.252 1.71094 195.689V190.955H0.335938V189.861H1.71094V187.908L2.99219 187.494V189.861H5.00781V190.955H2.99219V195.463C2.99219 195.999 3.08333 196.382 3.26562 196.611C3.44792 196.84 3.75 196.955 4.17188 196.955C4.49479 196.955 4.77344 196.867 5.00781 196.689V197.783ZM13.3594 197.861H12.0781V193.252C12.0781 191.585 11.4583 190.752 10.2188 190.752C9.59375 190.752 9.06771 190.994 8.64062 191.479C8.21354 191.958 8 192.575 8 193.33V197.861H6.71875V186.018H8V191.189H8.03125C8.64583 190.179 9.52083 189.674 10.6562 189.674C12.4583 189.674 13.3594 190.76 13.3594 192.932V197.861ZM22.2109 194.182H16.5625C16.5833 195.072 16.8229 195.76 17.2812 196.244C17.7396 196.729 18.3698 196.971 19.1719 196.971C20.0729 196.971 20.901 196.674 21.6562 196.08V197.283C20.9531 197.794 20.0234 198.049 18.8672 198.049C17.737 198.049 16.849 197.687 16.2031 196.963C15.5573 196.234 15.2344 195.21 15.2344 193.893C15.2344 192.648 15.5859 191.635 16.2891 190.854C16.9974 190.067 17.875 189.674 18.9219 189.674C19.9688 189.674 20.7786 190.012 21.3516 190.689C21.9245 191.367 22.2109 192.307 22.2109 193.51V194.182ZM20.8984 193.096C20.8932 192.356 20.7135 191.781 20.3594 191.369C20.0104 190.958 19.5234 190.752 18.8984 190.752C18.2943 190.752 17.7812 190.968 17.3594 191.4C16.9375 191.833 16.6771 192.398 16.5781 193.096H20.8984ZM32.5 187.143C32.25 187.002 31.9661 186.932 31.6484 186.932C30.7526 186.932 30.3047 187.497 30.3047 188.627V189.861H32.1797V190.955H30.3047V197.861H29.0312V190.955H27.6641V189.861H29.0312V188.564C29.0312 187.726 29.2734 187.064 29.7578 186.58C30.2422 186.09 30.8464 185.846 31.5703 185.846C31.9609 185.846 32.2708 185.893 32.5 185.986V187.143ZM34.2188 187.83C33.9896 187.83 33.7943 187.752 33.6328 187.596C33.4714 187.439 33.3906 187.242 33.3906 187.002C33.3906 186.762 33.4714 186.564 33.6328 186.408C33.7943 186.247 33.9896 186.166 34.2188 186.166C34.4531 186.166 34.651 186.247 34.8125 186.408C34.9792 186.564 35.0625 186.762 35.0625 187.002C35.0625 187.231 34.9792 187.426 34.8125 187.588C34.651 187.749 34.4531 187.83 34.2188 187.83ZM34.8438 197.861H33.5625V189.861H34.8438V197.861ZM41.6094 191.158C41.3854 190.986 41.0625 190.9 40.6406 190.9C40.0938 190.9 39.6354 191.158 39.2656 191.674C38.901 192.189 38.7188 192.893 38.7188 193.783V197.861H37.4375V189.861H38.7188V191.51H38.75C38.9323 190.947 39.2109 190.51 39.5859 190.197C39.9609 189.88 40.3802 189.721 40.8438 189.721C41.1771 189.721 41.4323 189.757 41.6094 189.83V191.158ZM42.5156 197.572V196.197C43.2135 196.713 43.9818 196.971 44.8203 196.971C45.9453 196.971 46.5078 196.596 46.5078 195.846C46.5078 195.632 46.4583 195.452 46.3594 195.307C46.2656 195.156 46.1354 195.023 45.9688 194.908C45.8073 194.794 45.6146 194.692 45.3906 194.604C45.1719 194.51 44.9349 194.413 44.6797 194.314C44.3255 194.174 44.013 194.033 43.7422 193.893C43.4766 193.747 43.2526 193.585 43.0703 193.408C42.8932 193.226 42.7578 193.02 42.6641 192.791C42.5755 192.562 42.5312 192.294 42.5312 191.986C42.5312 191.611 42.6172 191.281 42.7891 190.994C42.9609 190.702 43.1901 190.46 43.4766 190.268C43.763 190.07 44.0885 189.921 44.4531 189.822C44.8229 189.723 45.2031 189.674 45.5938 189.674C46.2865 189.674 46.9062 189.794 47.4531 190.033V191.33C46.8646 190.945 46.1875 190.752 45.4219 190.752C45.1823 190.752 44.9661 190.781 44.7734 190.838C44.5807 190.89 44.4141 190.965 44.2734 191.064C44.138 191.163 44.0312 191.283 43.9531 191.424C43.8802 191.559 43.8438 191.71 43.8438 191.877C43.8438 192.085 43.8802 192.26 43.9531 192.4C44.0312 192.541 44.1432 192.666 44.2891 192.775C44.4349 192.885 44.612 192.984 44.8203 193.072C45.0286 193.161 45.2656 193.257 45.5312 193.361C45.8854 193.497 46.2031 193.637 46.4844 193.783C46.7656 193.924 47.0052 194.085 47.2031 194.268C47.401 194.445 47.5521 194.65 47.6562 194.885C47.7656 195.119 47.8203 195.398 47.8203 195.721C47.8203 196.117 47.7318 196.46 47.5547 196.752C47.3828 197.044 47.151 197.286 46.8594 197.479C46.5677 197.671 46.2318 197.814 45.8516 197.908C45.4714 198.002 45.0729 198.049 44.6562 198.049C43.8333 198.049 43.1198 197.89 42.5156 197.572ZM53.5078 197.783C53.2057 197.95 52.8073 198.033 52.3125 198.033C50.9115 198.033 50.2109 197.252 50.2109 195.689V190.955H48.8359V189.861H50.2109V187.908L51.4922 187.494V189.861H53.5078V190.955H51.4922V195.463C51.4922 195.999 51.5833 196.382 51.7656 196.611C51.9479 196.84 52.25 196.955 52.6719 196.955C52.9948 196.955 53.2734 196.867 53.5078 196.689V197.783ZM63.3203 197.783C63.0182 197.95 62.6198 198.033 62.125 198.033C60.724 198.033 60.0234 197.252 60.0234 195.689V190.955H58.6484V189.861H60.0234V187.908L61.3047 187.494V189.861H63.3203V190.955H61.3047V195.463C61.3047 195.999 61.3958 196.382 61.5781 196.611C61.7604 196.84 62.0625 196.955 62.4844 196.955C62.8073 196.955 63.0859 196.867 63.3203 196.689V197.783ZM69.2031 191.158C68.9792 190.986 68.6562 190.9 68.2344 190.9C67.6875 190.9 67.2292 191.158 66.8594 191.674C66.4948 192.189 66.3125 192.893 66.3125 193.783V197.861H65.0312V189.861H66.3125V191.51H66.3438C66.526 190.947 66.8047 190.51 67.1797 190.197C67.5547 189.88 67.974 189.721 68.4375 189.721C68.7708 189.721 69.026 189.757 69.2031 189.83V191.158ZM77.0625 197.861H75.7812V196.596H75.75C75.2188 197.564 74.3958 198.049 73.2812 198.049C71.375 198.049 70.4219 196.913 70.4219 194.643V189.861H71.6953V194.439C71.6953 196.127 72.3411 196.971 73.6328 196.971C74.2578 196.971 74.7708 196.742 75.1719 196.283C75.5781 195.82 75.7812 195.215 75.7812 194.471V189.861H77.0625V197.861ZM86.0859 194.182H80.4375C80.4583 195.072 80.6979 195.76 81.1562 196.244C81.6146 196.729 82.2448 196.971 83.0469 196.971C83.9479 196.971 84.776 196.674 85.5312 196.08V197.283C84.8281 197.794 83.8984 198.049 82.7422 198.049C81.612 198.049 80.724 197.687 80.0781 196.963C79.4323 196.234 79.1094 195.21 79.1094 193.893C79.1094 192.648 79.4609 191.635 80.1641 190.854C80.8724 190.067 81.75 189.674 82.7969 189.674C83.8438 189.674 84.6536 190.012 85.2266 190.689C85.7995 191.367 86.0859 192.307 86.0859 193.51V194.182ZM84.7734 193.096C84.7682 192.356 84.5885 191.781 84.2344 191.369C83.8854 190.958 83.3984 190.752 82.7734 190.752C82.1693 190.752 81.6562 190.968 81.2344 191.4C80.8125 191.833 80.5521 192.398 80.4531 193.096H84.7734ZM99.25 197.221C99.25 200.158 97.8438 201.627 95.0312 201.627C94.0417 201.627 93.1771 201.439 92.4375 201.064V199.783C93.3385 200.283 94.1979 200.533 95.0156 200.533C96.9844 200.533 97.9688 199.486 97.9688 197.393V196.518H97.9375C97.3281 197.538 96.4115 198.049 95.1875 198.049C94.1927 198.049 93.3906 197.695 92.7812 196.986C92.1771 196.273 91.875 195.317 91.875 194.119C91.875 192.76 92.2005 191.679 92.8516 190.877C93.5078 190.075 94.4036 189.674 95.5391 189.674C96.6172 189.674 97.4167 190.106 97.9375 190.971H97.9688V189.861H99.25V197.221ZM97.9688 194.244V193.064C97.9688 192.429 97.7526 191.885 97.3203 191.432C96.8932 190.979 96.3594 190.752 95.7188 190.752C94.9271 190.752 94.3073 191.041 93.8594 191.619C93.4115 192.192 93.1875 192.997 93.1875 194.033C93.1875 194.924 93.401 195.637 93.8281 196.174C94.2604 196.705 94.8307 196.971 95.5391 196.971C96.2578 196.971 96.8411 196.715 97.2891 196.205C97.7422 195.695 97.9688 195.041 97.9688 194.244ZM108.273 194.182H102.625C102.646 195.072 102.885 195.76 103.344 196.244C103.802 196.729 104.432 196.971 105.234 196.971C106.135 196.971 106.964 196.674 107.719 196.08V197.283C107.016 197.794 106.086 198.049 104.93 198.049C103.799 198.049 102.911 197.687 102.266 196.963C101.62 196.234 101.297 195.21 101.297 193.893C101.297 192.648 101.648 191.635 102.352 190.854C103.06 190.067 103.938 189.674 104.984 189.674C106.031 189.674 106.841 190.012 107.414 190.689C107.987 191.367 108.273 192.307 108.273 193.51V194.182ZM106.961 193.096C106.956 192.356 106.776 191.781 106.422 191.369C106.073 190.958 105.586 190.752 104.961 190.752C104.357 190.752 103.844 190.968 103.422 191.4C103 191.833 102.74 192.398 102.641 193.096H106.961ZM116.859 197.861H115.578V193.299C115.578 191.601 114.958 190.752 113.719 190.752C113.078 190.752 112.547 190.994 112.125 191.479C111.708 191.958 111.5 192.564 111.5 193.299V197.861H110.219V189.861H111.5V191.189H111.531C112.135 190.179 113.01 189.674 114.156 189.674C115.031 189.674 115.701 189.958 116.164 190.525C116.628 191.088 116.859 191.903 116.859 192.971V197.861ZM125.711 194.182H120.062C120.083 195.072 120.323 195.76 120.781 196.244C121.24 196.729 121.87 196.971 122.672 196.971C123.573 196.971 124.401 196.674 125.156 196.08V197.283C124.453 197.794 123.523 198.049 122.367 198.049C121.237 198.049 120.349 197.687 119.703 196.963C119.057 196.234 118.734 195.21 118.734 193.893C118.734 192.648 119.086 191.635 119.789 190.854C120.497 190.067 121.375 189.674 122.422 189.674C123.469 189.674 124.279 190.012 124.852 190.689C125.424 191.367 125.711 192.307 125.711 193.51V194.182ZM124.398 193.096C124.393 192.356 124.214 191.781 123.859 191.369C123.51 190.958 123.023 190.752 122.398 190.752C121.794 190.752 121.281 190.968 120.859 191.4C120.438 191.833 120.177 192.398 120.078 193.096H124.398ZM131.828 191.158C131.604 190.986 131.281 190.9 130.859 190.9C130.312 190.9 129.854 191.158 129.484 191.674C129.12 192.189 128.938 192.893 128.938 193.783V197.861H127.656V189.861H128.938V191.51H128.969C129.151 190.947 129.43 190.51 129.805 190.197C130.18 189.88 130.599 189.721 131.062 189.721C131.396 189.721 131.651 189.757 131.828 189.83V191.158ZM138.945 197.861H137.664V196.611H137.633C137.076 197.57 136.255 198.049 135.172 198.049C134.375 198.049 133.75 197.838 133.297 197.416C132.849 196.994 132.625 196.434 132.625 195.736C132.625 194.242 133.505 193.372 135.266 193.127L137.664 192.791C137.664 191.432 137.115 190.752 136.016 190.752C135.052 190.752 134.182 191.08 133.406 191.736V190.424C134.193 189.924 135.099 189.674 136.125 189.674C138.005 189.674 138.945 190.669 138.945 192.658V197.861ZM137.664 193.814L135.734 194.08C135.141 194.163 134.693 194.312 134.391 194.525C134.089 194.734 133.938 195.106 133.938 195.643C133.938 196.033 134.076 196.354 134.352 196.604C134.633 196.848 135.005 196.971 135.469 196.971C136.104 196.971 136.628 196.749 137.039 196.307C137.456 195.859 137.664 195.294 137.664 194.611V193.814ZM145.07 197.783C144.768 197.95 144.37 198.033 143.875 198.033C142.474 198.033 141.773 197.252 141.773 195.689V190.955H140.398V189.861H141.773V187.908L143.055 187.494V189.861H145.07V190.955H143.055V195.463C143.055 195.999 143.146 196.382 143.328 196.611C143.51 196.84 143.812 196.955 144.234 196.955C144.557 196.955 144.836 196.867 145.07 196.689V197.783ZM150.125 198.049C148.943 198.049 147.997 197.676 147.289 196.932C146.586 196.182 146.234 195.189 146.234 193.955C146.234 192.611 146.602 191.562 147.336 190.807C148.07 190.051 149.062 189.674 150.312 189.674C151.505 189.674 152.435 190.041 153.102 190.775C153.773 191.51 154.109 192.528 154.109 193.83C154.109 195.106 153.747 196.13 153.023 196.9C152.305 197.666 151.339 198.049 150.125 198.049ZM150.219 190.752C149.396 190.752 148.745 191.033 148.266 191.596C147.786 192.153 147.547 192.924 147.547 193.908C147.547 194.856 147.789 195.604 148.273 196.15C148.758 196.697 149.406 196.971 150.219 196.971C151.047 196.971 151.682 196.702 152.125 196.166C152.573 195.63 152.797 194.867 152.797 193.877C152.797 192.877 152.573 192.106 152.125 191.564C151.682 191.023 151.047 190.752 150.219 190.752ZM160.328 191.158C160.104 190.986 159.781 190.9 159.359 190.9C158.812 190.9 158.354 191.158 157.984 191.674C157.62 192.189 157.438 192.893 157.438 193.783V197.861H156.156V189.861H157.438V191.51H157.469C157.651 190.947 157.93 190.51 158.305 190.197C158.68 189.88 159.099 189.721 159.562 189.721C159.896 189.721 160.151 189.757 160.328 189.83V191.158ZM169.453 198.049C168.271 198.049 167.326 197.676 166.617 196.932C165.914 196.182 165.562 195.189 165.562 193.955C165.562 192.611 165.93 191.562 166.664 190.807C167.398 190.051 168.391 189.674 169.641 189.674C170.833 189.674 171.763 190.041 172.43 190.775C173.102 191.51 173.438 192.528 173.438 193.83C173.438 195.106 173.076 196.13 172.352 196.9C171.633 197.666 170.667 198.049 169.453 198.049ZM169.547 190.752C168.724 190.752 168.073 191.033 167.594 191.596C167.115 192.153 166.875 192.924 166.875 193.908C166.875 194.856 167.117 195.604 167.602 196.15C168.086 196.697 168.734 196.971 169.547 196.971C170.375 196.971 171.01 196.702 171.453 196.166C171.901 195.63 172.125 194.867 172.125 193.877C172.125 192.877 171.901 192.106 171.453 191.564C171.01 191.023 170.375 190.752 169.547 190.752ZM182.125 197.861H180.844V193.299C180.844 191.601 180.224 190.752 178.984 190.752C178.344 190.752 177.812 190.994 177.391 191.479C176.974 191.958 176.766 192.564 176.766 193.299V197.861H175.484V189.861H176.766V191.189H176.797C177.401 190.179 178.276 189.674 179.422 189.674C180.297 189.674 180.966 189.958 181.43 190.525C181.893 191.088 182.125 191.903 182.125 192.971V197.861ZM192.648 197.783C192.346 197.95 191.948 198.033 191.453 198.033C190.052 198.033 189.352 197.252 189.352 195.689V190.955H187.977V189.861H189.352V187.908L190.633 187.494V189.861H192.648V190.955H190.633V195.463C190.633 195.999 190.724 196.382 190.906 196.611C191.089 196.84 191.391 196.955 191.812 196.955C192.135 196.955 192.414 196.867 192.648 196.689V197.783ZM201 197.861H199.719V193.252C199.719 191.585 199.099 190.752 197.859 190.752C197.234 190.752 196.708 190.994 196.281 191.479C195.854 191.958 195.641 192.575 195.641 193.33V197.861H194.359V186.018H195.641V191.189H195.672C196.286 190.179 197.161 189.674 198.297 189.674C200.099 189.674 201 190.76 201 192.932V197.861ZM209.852 194.182H204.203C204.224 195.072 204.464 195.76 204.922 196.244C205.38 196.729 206.01 196.971 206.812 196.971C207.714 196.971 208.542 196.674 209.297 196.08V197.283C208.594 197.794 207.664 198.049 206.508 198.049C205.378 198.049 204.49 197.687 203.844 196.963C203.198 196.234 202.875 195.21 202.875 193.893C202.875 192.648 203.227 191.635 203.93 190.854C204.638 190.067 205.516 189.674 206.562 189.674C207.609 189.674 208.419 190.012 208.992 190.689C209.565 191.367 209.852 192.307 209.852 193.51V194.182ZM208.539 193.096C208.534 192.356 208.354 191.781 208 191.369C207.651 190.958 207.164 190.752 206.539 190.752C205.935 190.752 205.422 190.968 205 191.4C204.578 191.833 204.318 192.398 204.219 193.096H208.539ZM217.672 197.861H216.359V186.658H217.672V197.861ZM227.094 197.861H225.812V193.299C225.812 191.601 225.193 190.752 223.953 190.752C223.312 190.752 222.781 190.994 222.359 191.479C221.943 191.958 221.734 192.564 221.734 193.299V197.861H220.453V189.861H221.734V191.189H221.766C222.37 190.179 223.245 189.674 224.391 189.674C225.266 189.674 225.935 189.958 226.398 190.525C226.862 191.088 227.094 191.903 227.094 192.971V197.861ZM233.227 197.783C232.924 197.95 232.526 198.033 232.031 198.033C230.63 198.033 229.93 197.252 229.93 195.689V190.955H228.555V189.861H229.93V187.908L231.211 187.494V189.861H233.227V190.955H231.211V195.463C231.211 195.999 231.302 196.382 231.484 196.611C231.667 196.84 231.969 196.955 232.391 196.955C232.714 196.955 232.992 196.867 233.227 196.689V197.783ZM241.367 194.182H235.719C235.74 195.072 235.979 195.76 236.438 196.244C236.896 196.729 237.526 196.971 238.328 196.971C239.229 196.971 240.057 196.674 240.812 196.08V197.283C240.109 197.794 239.18 198.049 238.023 198.049C236.893 198.049 236.005 197.687 235.359 196.963C234.714 196.234 234.391 195.21 234.391 193.893C234.391 192.648 234.742 191.635 235.445 190.854C236.154 190.067 237.031 189.674 238.078 189.674C239.125 189.674 239.935 190.012 240.508 190.689C241.081 191.367 241.367 192.307 241.367 193.51V194.182ZM240.055 193.096C240.049 192.356 239.87 191.781 239.516 191.369C239.167 190.958 238.68 190.752 238.055 190.752C237.451 190.752 236.938 190.968 236.516 191.4C236.094 191.833 235.833 192.398 235.734 193.096H240.055ZM247.484 191.158C247.26 190.986 246.938 190.9 246.516 190.9C245.969 190.9 245.51 191.158 245.141 191.674C244.776 192.189 244.594 192.893 244.594 193.783V197.861H243.312V189.861H244.594V191.51H244.625C244.807 190.947 245.086 190.51 245.461 190.197C245.836 189.88 246.255 189.721 246.719 189.721C247.052 189.721 247.307 189.757 247.484 189.83V191.158ZM255.516 197.861H254.234V193.299C254.234 191.601 253.615 190.752 252.375 190.752C251.734 190.752 251.203 190.994 250.781 191.479C250.365 191.958 250.156 192.564 250.156 193.299V197.861H248.875V189.861H250.156V191.189H250.188C250.792 190.179 251.667 189.674 252.812 189.674C253.688 189.674 254.357 189.958 254.82 190.525C255.284 191.088 255.516 191.903 255.516 192.971V197.861ZM264.367 194.182H258.719C258.74 195.072 258.979 195.76 259.438 196.244C259.896 196.729 260.526 196.971 261.328 196.971C262.229 196.971 263.057 196.674 263.812 196.08V197.283C263.109 197.794 262.18 198.049 261.023 198.049C259.893 198.049 259.005 197.687 258.359 196.963C257.714 196.234 257.391 195.21 257.391 193.893C257.391 192.648 257.742 191.635 258.445 190.854C259.154 190.067 260.031 189.674 261.078 189.674C262.125 189.674 262.935 190.012 263.508 190.689C264.081 191.367 264.367 192.307 264.367 193.51V194.182ZM263.055 193.096C263.049 192.356 262.87 191.781 262.516 191.369C262.167 190.958 261.68 190.752 261.055 190.752C260.451 190.752 259.938 190.968 259.516 191.4C259.094 191.833 258.833 192.398 258.734 193.096H263.055ZM270.023 197.783C269.721 197.95 269.323 198.033 268.828 198.033C267.427 198.033 266.727 197.252 266.727 195.689V190.955H265.352V189.861H266.727V187.908L268.008 187.494V189.861H270.023V190.955H268.008V195.463C268.008 195.999 268.099 196.382 268.281 196.611C268.464 196.84 268.766 196.955 269.188 196.955C269.51 196.955 269.789 196.867 270.023 196.689V197.783ZM272.18 198.033C271.94 198.033 271.734 197.947 271.562 197.775C271.396 197.604 271.312 197.398 271.312 197.158C271.312 196.919 271.396 196.713 271.562 196.541C271.734 196.364 271.94 196.275 272.18 196.275C272.424 196.275 272.633 196.364 272.805 196.541C272.977 196.713 273.062 196.919 273.062 197.158C273.062 197.398 272.977 197.604 272.805 197.775C272.633 197.947 272.424 198.033 272.18 198.033Z" fill="white"/>
<g clip-path="url(#clip0_21_296)">
<path d="M53.0089 8.89836C29.9087 5.97843 8.67275 20.4969 2.5127 42.1531C14.5896 54.0761 51.4689 56.7527 89.1587 35.1777C82.5934 21.308 69.3817 11.0072 53.0089 8.89836Z" fill="url(#paint0_radial_21_296)"/>
<path d="M92.4817 45.1541C68.0036 63.6469 33.9612 82.7887 7.45679 79.0576C10.6179 84.3297 14.8326 88.8718 19.8579 92.5217C49.6045 88.6285 74.4879 67.1346 93.1301 48.8851C92.968 47.6684 92.8059 46.4518 92.4817 45.1541Z" fill="url(#paint1_radial_21_296)"/>
<path d="M93.3735 50.5073C82.2692 65.4314 56.9805 93.7385 32.0161 98.8483C34.934 99.8216 38.0141 100.633 41.2562 101.038C66.7069 104.283 89.9692 86.2764 93.2114 60.8893C93.6166 57.4016 93.6977 53.9139 93.3735 50.5073Z" fill="url(#paint2_radial_21_296)"/>
<path d="M110.719 24.7958C104.154 29.9867 97.3455 34.4478 90.456 38.4221C58.3589 56.7528 24.8028 61.3759 0.648926 54.8061C0.648926 60.0782 1.45945 65.1881 3.16157 70.0546C28.7744 75.7323 60.7094 62.0248 91.4286 41.2609C97.9939 36.7999 104.478 32.0145 110.881 27.0668C113.88 23.9036 113.556 23.0114 110.719 24.7958Z" fill="url(#paint3_radial_21_296)"/>
<path d="M53.2521 27.6345C50.8205 27.1478 53.2521 25.2012 52.1173 24.7146C50.9826 24.2279 51.1447 26.1745 49.0373 26.8234C46.9299 27.4723 48.3078 25.2012 47.3352 23.4979C46.2815 21.7946 43.2015 21.8757 42.9583 22.6057C42.7151 23.3357 42.2288 23.579 42.2288 24.9579C42.2288 26.3367 44.1741 26.9045 41.5804 27.4723C39.0678 28.04 41.0941 28.6078 40.6888 29.5C40.2835 30.3922 39.7162 30.1489 39.6351 29.0944C39.6351 28.04 39.9593 26.4989 36.7172 26.4178C33.4751 26.3367 32.9888 23.1735 33.8803 21.8757C34.853 20.578 36.0688 21.3891 37.0414 21.0646C38.0141 20.7402 37.5277 19.6047 38.9056 19.7669C40.2835 19.9291 41.9046 19.1991 41.4993 17.8203C41.0941 16.3603 39.6351 17.9014 38.1762 18.3069C36.7172 18.7125 38.4193 17.9014 36.6361 17.1714C34.853 16.5225 35.0961 18.388 34.2856 18.8747C33.4751 19.3614 33.2319 18.7125 31.6919 18.5503C30.1519 18.388 28.2877 18.7125 26.9908 19.3613C25.694 19.9291 23.0192 18.8747 21.155 18.3069C18.0749 20.4969 15.2381 23.0924 12.8065 26.0123C13.0496 26.6612 13.2928 27.3911 13.4549 28.04C14.0223 30.5544 13.9412 29.3378 14.5896 31.2844C15.2381 33.231 14.1033 35.9887 12.5633 38.5842C11.0233 41.1797 12.7254 39.7197 14.0223 41.5852C15.3191 43.4508 14.0223 42.6397 14.1844 43.613C14.2654 44.2618 14.8328 45.5596 15.4812 47.1818C15.7244 47.2629 16.0486 47.344 16.2918 47.4251C15.5623 45.2351 15.9676 44.0996 16.4539 45.3163C16.697 46.0462 17.1833 46.7762 17.7507 47.7495C20.0202 48.3173 22.6139 48.7228 25.4508 49.0473C25.8561 48.3173 26.4234 47.7495 27.1529 47.7495C29.2603 47.8306 28.2066 47.9118 30.314 47.344C32.4214 46.8573 31.4487 47.1818 32.3403 47.4251C32.9077 47.5873 33.5561 48.3173 34.6098 49.2906C35.5825 49.2906 36.5551 49.2095 37.6088 49.1284C37.3656 48.1551 37.0414 47.0195 36.9604 46.2896C36.7983 44.2618 39.2299 44.4241 40.3646 42.7208C41.4993 41.0175 43.0394 39.9631 44.7415 38.6653C46.4436 37.3676 45.9573 37.2865 47.8215 37.2053C49.6857 37.1242 48.2268 37.8542 49.6047 37.8542C50.9826 37.8542 51.7931 36.4754 49.6047 35.5021C47.4162 34.6099 50.4963 34.3665 48.7131 33.961C46.9299 33.5554 47.4973 32.9066 47.4973 32.9066C47.4973 32.9066 52.1984 32.2577 55.1163 32.501C58.0342 32.7443 57.2237 29.2567 57.0616 28.1211C56.7374 27.1478 55.6837 28.1211 53.2521 27.6345ZM40.5267 16.2792C41.2562 16.3603 45.0657 17.0092 46.3625 17.9825C47.6594 18.9558 47.3352 19.9291 45.471 20.0102C44.2552 20.0913 42.7962 20.1724 44.7415 20.6591C46.6868 21.2269 47.4973 20.7402 47.9836 21.8757C48.4699 23.0113 50.0099 23.8223 50.091 23.4168C50.1721 22.9301 48.1457 21.9568 49.9289 22.2002C51.7121 22.4435 52.1984 22.6057 51.55 21.6324C50.9015 20.6591 48.551 19.6858 50.6584 20.0102C52.7658 20.2535 56.5753 23.0924 53.2521 20.1724C49.9289 17.2525 49.7668 18.2258 49.9289 17.2525C50.0099 16.3603 51.8742 16.6036 49.1184 16.0359C46.4436 15.5492 46.0383 16.2792 45.6331 15.3059C45.3089 14.3326 45.3899 12.6293 43.9309 14.1704C42.472 15.7114 43.5257 17.0903 42.472 15.7114C41.4183 14.3326 38.7435 14.657 38.7435 14.657C38.9056 16.117 39.7972 16.1981 40.5267 16.2792ZM72.6238 17.8203C67.4364 14.2515 61.3574 11.7371 54.711 10.6016C54.7921 11.3315 54.9542 12.1426 55.1163 13.0348C55.1974 13.6026 54.2247 14.0082 55.6837 14.8192C57.1426 15.6303 59.25 15.7114 58.1153 16.1981C56.9805 16.6848 55.6026 16.5225 56.3321 16.9281C57.0616 17.3336 58.7637 17.4147 58.1153 17.5769C57.4668 17.8203 56.3321 17.0092 56.8995 18.6314C57.4668 20.2536 57.3858 21.1457 59.4121 23.2546C61.4385 25.3634 62.8164 23.0924 63.1406 24.309C63.4648 25.6068 62.3301 26.8234 64.1132 27.6345C65.8153 28.4456 66.2206 26.6612 66.1396 24.7957C66.0585 22.9301 64.5185 22.7679 66.3827 21.8757C68.1659 21.0646 68.409 21.9568 69.4627 20.7402C70.5164 19.5236 70.7596 19.1991 70.6785 18.7125C70.5164 18.7125 71.4891 18.3069 72.6238 17.8203Z" fill="url(#paint4_radial_21_296)"/>
<path d="M132.36 8.57377C130.334 8.41155 127.173 9.87152 125.633 10.5204C124.174 11.1693 119.959 14.4136 116.311 16.198C112.583 17.9824 109.746 17.9824 106.99 17.9013C104.234 17.8202 99.2902 17.0902 95.0754 19.1991C91.9144 20.659 91.347 21.389 91.8333 21.8757C92.3196 22.3623 98.7228 22.4434 101.965 23.2545C105.288 24.0656 106.423 24.7956 106.423 24.7956L108.611 24.5523C108.611 24.5523 102.289 30.1488 101.154 30.7977C100.02 31.4465 98.5607 31.1221 95.1565 31.4465C91.7523 31.771 90.2123 34.042 90.9417 34.1231C91.5091 34.2042 97.2639 34.6098 100.506 34.9342C111.124 27.3911 129.28 13.5214 129.28 13.5214C133.008 10.2771 134.873 8.41155 132.36 8.57377ZM118.824 27.7966C119.554 27.5533 120.769 25.3634 120.283 21.7134L114.285 26.4178C115.501 27.31 118.176 28.04 118.824 27.7966Z" fill="url(#paint5_radial_21_296)"/>
<path d="M110.232 0.300781L111.286 2.40962L113.556 2.73405L111.853 4.27513L112.259 6.54618L110.232 5.49177L108.206 6.54618L108.611 4.27513L106.99 2.73405L109.26 2.40962L110.232 0.300781Z" fill="url(#paint6_radial_21_296)"/>
<path d="M131.955 20.1726L133.495 23.2548L136.899 23.8225L134.467 26.2558L135.035 29.6624L131.955 28.0402L128.794 29.6624L129.442 26.2558L126.929 23.8225L130.415 23.2548L131.955 20.1726Z" fill="#00ABE6"/>
<path d="M85.9167 8.97949L86.4841 10.1961L87.862 10.4395L86.8894 11.3317L87.1325 12.7105L85.9167 12.0616L84.7009 12.7105L84.9441 11.3317L83.8904 10.4395L85.2683 10.1961L85.9167 8.97949Z" fill="url(#paint7_radial_21_296)"/>
<path d="M98.6421 8.97949L98.9663 9.70948L99.7768 9.79058L99.2094 10.3584L99.3715 11.1694L98.6421 10.845L97.9126 11.1694L97.9936 10.3584L97.4263 9.79058L98.2368 9.70948L98.6421 8.97949Z" fill="url(#paint8_radial_21_296)"/>
<path d="M106.293 39.2595L113.749 64.4734H119.703L122.913 54.2222C123.637 51.737 124.259 49.2519 124.828 46.1454H124.932C125.501 49.2001 126.071 51.5817 126.847 54.2222L129.85 64.4734H135.753L143.674 39.2595H137.409L134.614 50.4427C133.94 53.3938 133.319 56.1378 132.957 58.8818H132.853C132.284 56.1378 131.611 53.3938 130.834 50.4427L127.676 39.2595H122.498L119.185 50.7533C118.512 53.342 117.683 56.1378 117.166 58.8818H117.062C116.596 56.1378 116.027 53.3938 115.405 50.7015L112.817 39.2595H106.293ZM158.55 38.69C150.939 38.69 145.503 43.7638 145.503 52.0477C145.503 60.1762 151.043 65.0429 158.136 65.0429C164.556 65.0429 171.079 60.901 171.079 51.6335C171.079 43.9709 166.057 38.69 158.55 38.69ZM158.395 43.2979C162.744 43.2979 164.504 47.854 164.504 51.7888C164.504 56.9144 161.967 60.435 158.343 60.435C154.512 60.435 152.078 56.7591 152.078 51.8923C152.078 47.6987 153.89 43.2979 158.395 43.2979ZM176.332 64.4734H182.7V51.3746C182.7 50.7015 182.752 50.0285 182.855 49.459C183.425 46.5596 185.548 44.644 188.551 44.644C189.327 44.644 189.897 44.6958 190.466 44.7993V38.8453C189.948 38.7418 189.586 38.69 188.965 38.69C186.221 38.69 183.27 40.5021 182.027 44.0227H181.872L181.613 39.2595H176.125C176.28 41.4858 176.332 43.9709 176.332 47.388V64.4734ZM194.786 64.4734H201.155V27.7139H194.786V64.4734ZM224.962 27.7139V41.9518H224.859C223.72 40.0879 221.234 38.69 217.766 38.69C211.708 38.69 206.427 43.7121 206.479 52.1512C206.479 59.9173 211.242 65.0429 217.3 65.0429C220.924 65.0429 223.978 63.2826 225.48 60.4868H225.583L225.894 64.4734H231.537C231.434 62.7649 231.33 59.9691 231.33 57.3804V27.7139H224.962ZM224.962 53.5491C224.962 54.2222 224.91 54.8434 224.755 55.413C224.134 58.157 221.856 59.9173 219.267 59.9173C215.229 59.9173 212.951 56.552 212.951 51.8923C212.951 47.2327 215.229 43.6085 219.319 43.6085C222.218 43.6085 224.237 45.6277 224.807 48.0611C224.91 48.5788 224.962 49.2519 224.962 49.7696V53.5491Z" fill="#00ABE6"/>
<path d="M245.26 64.4734V44.0227H250.386V39.2595H245.209V38.1205C245.209 34.7552 246.658 31.9594 250.541 31.9594C252.146 31.9594 253.233 32.1665 253.907 32.5289V64.4734H260.275V29.0601C258.048 27.8693 254.942 27.1444 251.525 27.1444C247.694 27.1444 244.794 28.0246 242.62 29.8367C240.186 31.8559 238.892 35.0141 238.892 38.1723V39.2595H235.475V44.0227H238.892V64.4734H245.26ZM264.085 39.2595L273.352 62.4024C273.611 63.0237 273.663 63.3861 273.663 63.645C273.663 63.9556 273.56 64.3181 273.301 64.784C272.421 66.4926 271.023 67.994 269.78 68.7706C268.486 69.7025 267.191 70.2721 266.104 70.5309L267.554 75.8636C269.107 75.6565 271.696 74.8282 274.233 72.6537C277.184 70.065 279.514 65.8713 282.982 56.4484L289.299 39.2595H282.516L278.582 52.7207C278.064 54.3257 277.598 56.2413 277.236 57.6392H277.08C276.718 56.2413 276.148 54.3257 275.631 52.7725L271.126 39.2595H264.085Z" fill="white"/>
<path d="M112.728 88.0251H113.798V80.7253H116.304V79.825H110.233V80.7253H112.728V88.0251ZM120.194 79.679C118.004 79.679 116.398 81.3823 116.398 83.9859C116.398 86.4679 117.907 88.159 120.085 88.159C122.177 88.159 123.893 86.6503 123.893 83.8399C123.893 81.3945 122.445 79.679 120.194 79.679ZM120.158 80.5428C121.922 80.5428 122.774 82.2461 122.774 83.8886C122.774 85.75 121.825 87.2952 120.146 87.2952C118.467 87.2952 117.518 85.7257 117.518 83.9616C117.518 82.1731 118.394 80.5428 120.158 80.5428ZM125.261 79.825V84.6551C125.261 87.21 126.526 88.159 128.205 88.159C129.982 88.159 131.308 87.137 131.308 84.6186V79.825H130.237V84.6916C130.237 86.4922 129.446 87.2952 128.242 87.2952C127.147 87.2952 126.332 86.5165 126.332 84.6916V79.825H125.261ZM133.15 88.0251H134.209V84.4726H135.207C136.168 84.5091 136.618 84.9349 136.861 86.0664C137.08 87.0883 137.263 87.7818 137.397 88.0251H138.492C138.321 87.7088 138.127 86.918 137.859 85.7744C137.664 84.9227 137.287 84.3387 136.667 84.1197V84.0832C137.518 83.7913 138.2 83.0734 138.2 82.0028C138.2 81.358 137.956 80.7983 137.555 80.4333C137.056 79.9832 136.314 79.7642 135.182 79.7642C134.464 79.7642 133.686 79.8372 133.15 79.9345V88.0251ZM134.209 80.6767C134.391 80.628 134.744 80.5915 135.255 80.5915C136.375 80.5915 137.141 81.0538 137.141 82.1123C137.141 83.0491 136.423 83.6696 135.292 83.6696H134.209V80.6767ZM139.283 87.6237C139.721 87.9156 140.585 88.159 141.376 88.159C143.31 88.159 144.235 87.0518 144.235 85.7865C144.235 84.5821 143.542 83.9129 142.155 83.3776C141.023 82.9396 140.524 82.5625 140.524 81.796C140.524 81.2363 140.95 80.5672 142.069 80.5672C142.812 80.5672 143.359 80.7983 143.615 80.9565L143.907 80.0927C143.554 79.8859 142.933 79.6912 142.106 79.6912C140.512 79.6912 139.454 80.6402 139.454 81.9176C139.454 83.0613 140.281 83.7669 141.619 84.2536C142.726 84.6672 143.164 85.1174 143.164 85.8717C143.164 86.699 142.532 87.2708 141.449 87.2708C140.719 87.2708 140.038 87.0397 139.563 86.7355L139.283 87.6237ZM152.509 85.4459L153.385 88.0251H154.517L151.718 79.825H150.453L147.655 88.0251H148.75L149.601 85.4459H152.509ZM149.82 84.6186L150.623 82.2461C150.794 81.7473 150.915 81.2363 151.037 80.7618H151.061C151.183 81.2363 151.305 81.723 151.487 82.2583L152.302 84.6186H149.82ZM156.722 88.0251V84.5212C156.722 83.1586 156.71 82.1731 156.649 81.139L156.686 81.1268C157.087 82.015 157.635 82.9518 158.207 83.8643L160.81 88.0251H161.881V79.825H160.883V83.2559C160.883 84.5334 160.908 85.531 161.005 86.626L160.968 86.6382C160.591 85.7987 160.105 84.9349 159.509 83.9737L156.893 79.825H155.725V88.0251H156.722ZM163.733 88.0008C164.268 88.0616 164.889 88.0981 165.655 88.0981C167.249 88.0981 168.514 87.6845 169.293 86.918C170.047 86.1637 170.473 85.0687 170.473 83.7304C170.473 82.4043 170.047 81.4553 169.305 80.7862C168.587 80.1292 167.504 79.7642 165.984 79.7642C165.144 79.7642 164.378 79.8372 163.733 79.9467V88.0008ZM164.791 80.7132C165.071 80.6523 165.485 80.6037 166.032 80.6037C168.271 80.6037 169.366 81.8325 169.354 83.7669C169.354 85.9812 168.137 87.2465 165.862 87.2465C165.448 87.2465 165.059 87.2343 164.791 87.1978V80.7132ZM175.472 88.0251H176.543V80.7253H179.049V79.825H172.978V80.7253H175.472V88.0251ZM179.962 88.0251H181.021V84.4726H182.019C182.98 84.5091 183.43 84.9349 183.673 86.0664C183.892 87.0883 184.075 87.7818 184.209 88.0251H185.303C185.133 87.7088 184.939 86.918 184.671 85.7744C184.476 84.9227 184.099 84.3387 183.479 84.1197V84.0832C184.33 83.7913 185.012 83.0734 185.012 82.0028C185.012 81.358 184.768 80.7983 184.367 80.4333C183.868 79.9832 183.126 79.7642 181.994 79.7642C181.276 79.7642 180.498 79.8372 179.962 79.9345V88.0251ZM181.021 80.6767C181.203 80.628 181.556 80.5915 182.067 80.5915C183.187 80.5915 183.953 81.0538 183.953 82.1123C183.953 83.0491 183.235 83.6696 182.104 83.6696H181.021V80.6767ZM190.802 85.4459L191.678 88.0251H192.81L190.011 79.825H188.746L185.948 88.0251H187.043L187.895 85.4459H190.802ZM188.114 84.6186L188.917 82.2461C189.087 81.7473 189.209 81.2363 189.33 80.7618H189.355C189.476 81.2363 189.598 81.723 189.78 82.2583L190.595 84.6186H188.114ZM196.345 88.0251L199.277 79.825H198.146L196.759 83.8764C196.381 84.9471 196.053 85.9812 195.822 86.9302H195.797C195.566 85.969 195.262 84.9714 194.921 83.8643L193.644 79.825H192.488L195.177 88.0251H196.345ZM204.394 83.3046H201.219V80.7132H204.589V79.825H200.148V88.0251H204.772V87.137H201.219V84.1806H204.394V83.3046ZM206.136 88.0251H210.711V87.137H207.207V79.825H206.136V88.0251ZM211.474 87.6237C211.912 87.9156 212.775 88.159 213.566 88.159C215.501 88.159 216.425 87.0518 216.425 85.7865C216.425 84.5821 215.732 83.9129 214.345 83.3776C213.213 82.9396 212.715 82.5625 212.715 81.796C212.715 81.2363 213.14 80.5672 214.26 80.5672C215.002 80.5672 215.549 80.7983 215.805 80.9565L216.097 80.0927C215.744 79.8859 215.124 79.6912 214.296 79.6912C212.702 79.6912 211.644 80.6402 211.644 81.9176C211.644 83.0613 212.471 83.7669 213.81 84.2536C214.917 84.6672 215.355 85.1174 215.355 85.8717C215.355 86.699 214.722 87.2708 213.639 87.2708C212.909 87.2708 212.228 87.0397 211.753 86.7355L211.474 87.6237Z" fill="white"/>
</g>
<defs>
<radialGradient id="paint0_radial_21_296" cx="0" cy="0" r="1" gradientUnits="userSpaceOnUse" gradientTransform="translate(13.7151 21.5199) scale(66.7874 66.8334)">
<stop stop-color="#0086CC"/>
<stop offset="0.9995" stop-color="#0062AF"/>
</radialGradient>
<radialGradient id="paint1_radial_21_296" cx="0" cy="0" r="1" gradientUnits="userSpaceOnUse" gradientTransform="translate(79.9141 58.5873) scale(62.9217 62.965)">
<stop stop-color="#FDB913"/>
<stop offset="0.9995" stop-color="#F15623"/>
</radialGradient>
<radialGradient id="paint2_radial_21_296" cx="0" cy="0" r="1" gradientUnits="userSpaceOnUse" gradientTransform="translate(87.9121 58.8632) scale(60.5304 60.572)">
<stop stop-color="#B2D33E"/>
<stop offset="0.9995" stop-color="#62B16B"/>
</radialGradient>
<radialGradient id="paint3_radial_21_296" cx="0" cy="0" r="1" gradientUnits="userSpaceOnUse" gradientTransform="translate(26.5113 60.2953) scale(77.5398 77.5932)">
<stop stop-color="#B95AA2"/>
<stop offset="0.6853" stop-color="#6A2C91"/>
<stop offset="1" stop-color="#2F2956"/>
</radialGradient>
<radialGradient id="paint4_radial_21_296" cx="0" cy="0" r="1" gradientUnits="userSpaceOnUse" gradientTransform="translate(25.2799 20.306) rotate(7.30125) scale(36.074 36.098)">
<stop stop-color="#AFD89F"/>
<stop offset="0.9995" stop-color="#0093B2"/>
</radialGradient>
<radialGradient id="paint5_radial_21_296" cx="0" cy="0" r="1" gradientUnits="userSpaceOnUse" gradientTransform="translate(119.232 10.5127) scale(20.5532 20.5673)">
<stop stop-color="#6A2C91"/>
<stop offset="0.1458" stop-color="#5E2B81"/>
<stop offset="0.4142" stop-color="#4A2B6E"/>
<stop offset="0.6557" stop-color="#3C2A60"/>
<stop offset="0.8592" stop-color="#322958"/>
<stop offset="1" stop-color="#2F2956"/>
</radialGradient>
<radialGradient id="paint6_radial_21_296" cx="0" cy="0" r="1" gradientUnits="userSpaceOnUse" gradientTransform="translate(108.815 1.65165) scale(4.99345 4.99688)">
<stop stop-color="#6A2C91"/>
<stop offset="0.1458" stop-color="#5E2B81"/>
<stop offset="0.4142" stop-color="#4A2B6E"/>
<stop offset="0.6557" stop-color="#3C2A60"/>
<stop offset="0.8592" stop-color="#322958"/>
<stop offset="1" stop-color="#2F2956"/>
</radialGradient>
<radialGradient id="paint7_radial_21_296" cx="0" cy="0" r="1" gradientUnits="userSpaceOnUse" gradientTransform="translate(85.8994 10.8496) scale(1.93199 1.93332)">
<stop stop-color="#0086CC"/>
<stop offset="0.9995" stop-color="#0062AF"/>
</radialGradient>
<radialGradient id="paint8_radial_21_296" cx="0" cy="0" r="1" gradientUnits="userSpaceOnUse" gradientTransform="translate(98.6095 10.0801) scale(1.14876 1.14956)">
<stop stop-color="#6A2C91"/>
<stop offset="0.1458" stop-color="#5E2B81"/>
<stop offset="0.4142" stop-color="#4A2B6E"/>
<stop offset="0.6557" stop-color="#3C2A60"/>
<stop offset="0.8592" stop-color="#322958"/>
<stop offset="1" stop-color="#2F2956"/>
</radialGradient>
<clipPath id="clip0_21_296">
<rect width="291" height="103.723" fill="white" transform="translate(0 0.138672)"/>
</clipPath>
</defs>
</svg>
